<?xml version='1.0' encoding='utf-8'?>
<svg xmlns="http://www.w3.org/2000/svg" enable-background="new 0 0 59.75 69.15" version="1.1" viewBox="0 0 59.75 69.15">
<g clip-rule="evenodd" fill-rule="evenodd">
	<path d="m50.175 3.925l-0.175-0.075-0.05 0.05c-0.233 0.533-0.517 0.867-0.851 1-0.033-0.633-0.066-1.117-0.1-1.45h-0.05l-0.049-0.05c0.433-0.133 1.116-0.267 2.05-0.4l0.15 0.05c-0.466 0.3-0.867 0.55-1.2 0.75 0.081 0.027 0.172 0.069 0.275 0.125zm3.675 2.975c-0.1-0.4-0.316-0.767-0.649-1.1-0.267-0.3-0.667-0.617-1.2-0.95l-0.05 0.5c-0.101 0.667-0.267 1.033-0.5 1.1-0.667 0.167-1.05-0.667-1.15-2.5 0.666 0.267 1.232 0.55 1.699 0.85 0.033 0 0.05 0.017 0.05 0.05 0.834 0.467 1.384 0.983 1.65 1.55 0.067 0.167 0.116 0.333 0.15 0.5zm-5.3-3.55c-0.1 0.233-0.25 0.6-0.45 1.1-0.133 0.2-0.316 0.35-0.55 0.45-0.2 0.067-0.366 0.117-0.5 0.15h-0.05l-0.05-0.05c-0.033-0.1-0.066-0.183-0.101-0.25l-0.149-0.65c-0.101-0.434-0.267-0.9-0.5-1.4 0.2 0.033 0.399 0.083 0.6 0.15 0.611 0.153 1.195 0.319 1.75 0.5zm-2.9-0.8l-0.1 0.25-0.05-0.3c-0.134 0.2-0.217 0.4-0.25 0.6l-0.3 0.1c-0.066-0.434-0.15-0.717-0.25-0.85 0.157 0.042 0.324 0.075 0.5 0.1v-0.1l0.2-0.15 0.2-0.1 0.051 0.3-0.051 0.1v0.05h0.05zm-38.25 6.9c-0.708-0.49-1.166-0.99-1.375-1.5 0.083 0.192 0.208 0.392 0.375 0.6l0.15 0.15c0.233 0.233 0.517 0.483 0.85 0.75zm12.35-7.85l-0.4 0.05-0.275 0.025c0.037-7e-3 0.079-0.016 0.125-0.025 0.1 0 0.2-0.017 0.3-0.05l-0.3-0.3c-0.2-0.133-0.35-0.316-0.45-0.55h0.1c0.367 0 0.783 0.117 1.25 0.35 0.033 0.1 0.117 0.233 0.25 0.4 2.9-0.333 6.066-0.5 9.5-0.5 0.767 0 1.534 0.017 2.301 0.05h0.849c0.066-0.333 0.134-0.533 0.2-0.6 0.066 0.2 0.116 0.417 0.149 0.65 0.067-0.033 0.134-0.033 0.2 0 4.066 0.133 7.733 0.533 11 1.2-0.267 0.267-0.566 0.434-0.899 0.5-0.167 0.034-0.367 0.117-0.601 0.25l-0.6 0.35c-0.3 0.167-0.65 0.217-1.05 0.15-0.567-0.066-0.917-0.083-1.051-0.05-0.365 0.067-0.648 0.133-0.848 0.2-1.233-0.133-2.5-0.25-3.8-0.35h-0.601c-0.733-0.267-1.216-0.583-1.449-0.95-0.034-0.1-0.101-0.533-0.2-1.3h-0.2l-0.45-0.05-0.1 0.25-0.5 0.3c-0.2 0.233-0.367 0.383-0.5 0.45-0.066 0.033-0.25 0.017-0.55-0.05-0.266-0.067-0.45-0.067-0.55 0l-0.35 0.4c-0.167 0.167-0.267 0.25-0.3 0.25-0.066 0.033-0.167 0.05-0.3 0.05-0.7 0.1-1.817 0.15-3.351 0.15h-4.85c-0.199 0.033-0.349 0.05-0.449 0.05-0.233 0-0.4-0.05-0.5-0.15-0.2-0.1-0.3-0.45-0.3-1.05l-0.45-0.1zm15 11.7h-0.1l0.6-0.05h0.35c-0.287 0.015-0.571 0.031-0.85 0.05zm-19.7-9.4l-0.45-0.15c-0.167-0.133-0.367-0.517-0.6-1.15 1.5-0.367 3.083-0.667 4.75-0.9-0.233 0.167-0.367 0.367-0.4 0.6 0 0.3-0.033 0.483-0.1 0.55l-0.25 0.15c-0.233 0-0.483 0.133-0.75 0.4-0.267 0.2-0.6 0.317-1 0.35l-1.2 0.15zm-8.1 1.45c-0.633 0.567-0.983 1.117-1.05 1.65 0.033-0.567 0.333-1.083 0.9-1.55 0.367-0.333 0.833-0.65 1.4-0.95-0.1-0.1-0.2-0.167-0.3-0.2-0.129-0.065-0.246-0.098-0.35-0.1h0.3c0.333 0 0.583 0.033 0.75 0.1 1.1-0.5 2.533-0.983 4.3-1.45 0.3-0.067 0.6-0.133 0.9-0.2-0.167 0.667-0.2 1.383-0.1 2.15-0.233 0.034-0.467 0.083-0.7 0.15-0.3 0.066-0.6 0.15-0.9 0.25l-1.75 0.55c-0.317 0.116-0.617 0.232-0.9 0.35-0.067-0.033-0.117-0.05-0.15-0.05-0.1-0.033-0.183-0.066-0.25-0.1-0.233-0.133-0.383-0.283-0.45-0.45l-0.1-0.45v-0.35l0.05-0.35-0.2 0.1-0.25 0.15h-0.05l-0.35 0.45-0.1-0.15h-0.05l-0.55 0.95c0.033-0.133 0.083-0.25 0.15-0.35 0.067-0.2 0.15-0.35 0.25-0.45l-0.45 0.3z" fill="#402D18"/>
	<path d="m51.65 4.45c-0.134-0.133-0.267-0.233-0.4-0.3-0.388-0.226-0.713-0.293-0.975-0.2h-0.025l-0.025-0.025h-0.05c-0.103-0.056-0.194-0.098-0.275-0.125 0.333-0.2 0.733-0.45 1.199-0.75l-0.149-0.05-0.8-0.3-0.5-0.15c-0.301 0.133-0.434 0.267-0.4 0.4-0.233 0.067-0.45 0.15-0.65 0.25-0.267-0.2-0.416-0.317-0.45-0.35-0.301-0.2-0.917-0.333-1.851-0.4 0-0.267-0.033-0.45-0.1-0.55-0.3 0.033-0.483 0.2-0.55 0.5l-0.049-0.3c0.233-0.133 0.434-0.3 0.601-0.5l-0.55-0.1c-0.233 0.233-0.334 0.467-0.301 0.7h0.05l-0.2 0.15c0-0.2-0.167-0.367-0.5-0.5-0.467-0.067-0.8-0.117-1-0.15l-1.5-0.3c-2.3-0.3-4.017-0.483-5.15-0.55-0.666 0.033-1.217 0.05-1.65 0.05-0.801 0-1.267-0.15-1.4-0.45l-0.4 0.5c-0.233-0.267-0.267-0.55-0.1-0.85-0.2-0.033-0.467-0.05-0.8-0.05l0.05 0.6c0 0.167 0.017 0.3 0.05 0.4h-0.649c-0.134-0.167-0.317-0.267-0.551-0.3-0.466 0.033-0.833 0.05-1.1 0.05-1.1 0-1.917 0.034-2.45 0.1-0.433 0.033-1.8 0.05-4.1 0.05h-2.15c-0.733-0.1-1.283-0.133-1.65-0.1l-0.15-0.25-1.15 0.15h-0.1l-0.45 0.1 0.9 0.45 0.3 0.3c-0.1 0.033-0.2 0.05-0.3 0.05-0.367-0.133-0.867-0.15-1.5-0.05l-3.05 0.45c-0.267 0.033-0.583 0.15-0.95 0.35-0.4 0.2-0.7 0.317-0.9 0.35l-1.35 0.2c-0.167 0.033-0.55 0.2-1.15 0.5-0.467 0.1-0.817 0.183-1.05 0.25-0.833 0-1.383 0.083-1.65 0.25 0.033 0.066 0.2 0.1 0.5 0.1 0.3 0.033 0.467 0.117 0.5 0.25-0.167-0.067-0.417-0.1-0.75-0.1-0.6-0.1-0.917-0.15-0.95-0.15l-0.25 0.1h0.35c0.333 0.033 0.633 0.083 0.9 0.15 0.1 0.033 0.2 0.1 0.3 0.2-0.567 0.3-1.033 0.617-1.4 0.95-0.667 0.367-1.1 0.966-1.3 1.8v0.05c-0.067 0.167-0.117 0.333-0.15 0.5-0.1 0.533-0.083 0.967 0.05 1.3 0.067 0.167 0.167 0.3 0.3 0.4 0.167 0.133 0.35 0.283 0.55 0.45 0.033 0 0.083 0.017 0.15 0.05 0.233 0.133 0.5 0.267 0.8 0.4 0.333 0.1 0.716 0.217 1.15 0.35 0.233 0.067 0.566 0.2 1 0.4 0.2 0.033 0.433-0.017 0.7-0.15l0.15-0.2c0.033 0.2-0.05 0.383-0.25 0.55-0.167 0.133-0.45 0.267-0.85 0.4-0.1 0.067-0.183 0.183-0.25 0.35l-0.6 0.3c-0.567-0.233-1.067-0.467-1.5-0.7-0.4-0.2-0.75-0.4-1.05-0.6l-0.05-0.05c-0.367-0.233-0.683-0.466-0.95-0.7l-0.25-0.25c-0.633-0.7-0.95-1.433-0.95-2.2 0-0.267 0.033-0.517 0.1-0.75 0.533-1.867 3.1-3.483 7.7-4.85 5.2-1.533 11.467-2.3 18.8-2.3 7.334 0 13.617 0.767 18.851 2.3 5.2 1.567 7.8 3.434 7.8 5.6 0 0.333-0.066 0.667-0.2 1-0.533 1.4-2.233 2.65-5.1 3.75-0.733 0.233-1.517 0.483-2.351 0.75-0.033 0-0.066 0.017-0.1 0.05-0.033-0.667 0.25-1.15 0.85-1.45 0.467-0.2 1.167-0.467 2.101-0.8 0.767-0.367 1.35-0.8 1.75-1.3l0.05-0.05c0.134-0.167 0.267-0.3 0.4-0.4 0.199-0.267 0.349-0.483 0.449-0.65 0.334-0.5 0.417-0.933 0.25-1.3l-0.35-0.4 0.9-0.1 1.2 0.1-0.3-0.6h-0.5c-0.133-0.067-0.416-0.067-0.85 0h-0.35c0.067-0.3 0.067-0.533 0-0.7-0.166-0.566-0.75-0.966-1.75-1.2-0.466-0.067-0.867-0.117-1.2-0.15zm-3.2 9.15c0.033-0.667-0.384-1.233-1.25-1.7h0.149c0.134 0.1 0.301 0.233 0.5 0.4 0.5 0.434 0.851 0.817 1.051 1.15h0.05c-0.167 0.033-0.334 0.083-0.5 0.15zm-1.25 0.35c-0.134 0-0.25 0.017-0.351 0.05-0.633 0.167-1.267 0.317-1.899 0.45-0.667 0.133-1.334 0.25-2 0.35-0.767 0.133-1.533 0.25-2.3 0.35-0.233 0.033-0.467 0.067-0.7 0.1h-0.05c-0.5 0.033-1.017 0.083-1.551 0.15-1.066 0.1-2.149 0.184-3.25 0.25-0.566 0-1.116 0.017-1.649 0.05-0.2 0-0.384 0.017-0.55 0.05h-4.25v-0.5c-0.033-0.633-0.033-1.067 0-1.3l0.05-0.55h0.1l0.05 1.45c0.167 0.066 0.433 0.033 0.8-0.1 0.466-0.2 1.133-0.517 2-0.95 0.466-0.2 0.916-0.35 1.35-0.45l1.525-0.05h0.225c0.134 0.034 0.3 0.05 0.5 0.05 0.533 0.033 1.233 0.1 2.1 0.2 0.5 0.034 0.967 0.067 1.4 0.1 0.533 0 1.033-0.017 1.5-0.05h0.2c0.033-0.033 0.083-0.05 0.149-0.05 0.101 0 0.2-0.017 0.301-0.05 0.6-0.1 1.133-0.2 1.6-0.3 0.333-0.1 0.634-0.2 0.9-0.3 0.399-0.233 0.699-0.467 0.899-0.7 0.066-0.034 0.15-0.05 0.25-0.05l0.351 0.1c0.033 0 0.267 0.183 0.699 0.55 0.233 0.2 0.584 0.45 1.051 0.75 0.133 0.1 0.3 0.217 0.5 0.35l0.05 0.05zm-38.25-1.25c-0.2-0.1-0.383-0.184-0.55-0.25l0.8 0.3 0.1 0.05c-0.133-0.033-0.25-0.067-0.35-0.1zm1.15 0.35c-0.167-0.033-0.333-0.083-0.5-0.15h0.05l0.6-0.5h4.4c0.133 0.033 0.35 0.1 0.65 0.2h0.1c0.1 0.033 0.217 0.066 0.35 0.1 0.033 0 0.083 0.017 0.15 0.05 0.1 0.033 0.2 0.067 0.3 0.1 0.2 0.1 0.483 0.167 0.85 0.2 0.833 0.3 1.55 0.483 2.15 0.55 0.667 0.066 1.7 0.1 3.1 0.1 0.633 0.033 1.267 0.033 1.9 0 0.133 0 0.25-0.017 0.35-0.05h0.3c0.4-0.033 0.75-0.083 1.05-0.15 0.1-0.067 0.2-0.117 0.3-0.15l0.05 0.05c0.067 0.1 0.1 0.35 0.1 0.75l0.15 0.75-0.1 0.8c-0.066-0.034-0.117-0.034-0.15 0-0.3-0.034-0.6-0.05-0.9-0.05-0.767-0.033-1.517-0.083-2.25-0.15-0.633-0.033-1.233-0.083-1.8-0.15-0.267-0.033-0.533-0.067-0.8-0.1-0.1 0-0.217-0.017-0.35-0.05-0.4-0.034-0.783-0.083-1.15-0.15-0.1 0-0.2-0.017-0.3-0.05-1.3-0.167-2.534-0.383-3.7-0.65-0.167-0.033-0.3-0.05-0.4-0.05-0.434-0.1-0.833-0.2-1.2-0.3s-0.733-0.183-1.1-0.25c-0.3-0.1-0.6-0.183-0.9-0.25-0.033-0.033-0.066-0.05-0.1-0.05-0.167-0.034-0.316-0.083-0.45-0.15-0.267-0.067-0.517-0.15-0.75-0.25zm0.65-1.25l-0.75 0.45 0.2-0.15 0.55-0.3z" fill="#83612C"/>
	<path d="m48.6 3.2c0.067 0.033 0.167 0.1 0.301 0.2l0.05 0.05-0.251-0.05c-0.05-0.017-0.1-0.033-0.15-0.05-0.555-0.181-1.139-0.347-1.75-0.5-0.2-0.067-0.4-0.117-0.6-0.15l-0.05-0.05-0.5-0.1h-0.05v-0.05l0.051-0.1c0.066-0.3 0.25-0.467 0.55-0.5 0.066 0.1 0.1 0.283 0.1 0.55 0.934 0.066 1.55 0.2 1.851 0.4 0.032 0.033 0.181 0.15 0.448 0.35zm3.05 1.25l0.35 0.35c-0.467-0.3-1.033-0.583-1.7-0.85h-0.024c0.262-0.093 0.587-0.026 0.975 0.2 0.133 0.067 0.266 0.167 0.399 0.3zm-4.3 7.45h-0.149c-0.3 0-0.601-0.017-0.9-0.05v-0.1c0.167-0.067 0.334-0.117 0.5-0.15 3.561-0.923 5.769-1.99 6.625-3.2l0.025-0.05 0.049-0.05c0.033-0.066 0.066-0.117 0.1-0.15 0.267 0.067 0.417 0.117 0.45 0.15 0.134 0.067 0.217 0.217 0.25 0.45 0 0.233-0.05 0.467-0.149 0.7-0.134 0.1-0.267 0.233-0.4 0.4-0.434 0.367-1.1 0.667-2 0.9-0.833 0.333-1.434 0.533-1.8 0.6-0.267 0.033-0.75 0.15-1.45 0.35-0.367 0.1-0.751 0.167-1.151 0.2zm6.35-5.5c-0.267-0.566-0.816-1.083-1.65-1.55 1.667 0.533 2.267 1.017 1.8 1.45-0.034 0.033-0.083 0.067-0.15 0.1zm-36.65 6.65c-0.267-0.1-0.55-0.2-0.85-0.3l-1.15-0.65c0.367 0.066 0.767 0.15 1.2 0.25l2.4 0.3 1.2 0.15 1.95 0.25c1.233 0.1 2.534 0.184 3.9 0.25-0.4 0.167-0.784 0.284-1.15 0.35-0.1 0.033-0.216 0.05-0.35 0.05-0.633 0.033-1.267 0.033-1.9 0-1.4 0-2.433-0.034-3.1-0.1-0.6-0.067-1.317-0.25-2.15-0.55zm27.5-10.75c-3.267-0.667-6.934-1.066-11-1.2l0.05-0.15 0.4-0.5c0.134 0.3 0.6 0.45 1.4 0.45 0.433 0 0.983-0.017 1.649-0.05 1.135 0.067 2.851 0.25 5.151 0.55l1.5 0.3c0.2 0.033 0.533 0.083 1 0.15 0.333 0.133 0.5 0.3 0.5 0.5v0.1c-0.176-0.025-0.343-0.059-0.5-0.1l-0.15-0.05zm-7.95 10.9c0.101-0.034 0.2-0.05 0.301-0.05l2.149-0.2c-0.2 0.033-0.383 0.066-0.55 0.1-0.4 0.067-1.033 0.117-1.9 0.15zm-4.45-12.15c-0.766-0.033-1.534-0.05-2.3-0.05-3.433 0-6.6 0.167-9.5 0.5-0.133-0.167-0.217-0.3-0.25-0.4v-0.25h0.05c0.367-0.033 0.917 0 1.65 0.1h2.15c2.3 0 3.667-0.017 4.1-0.05 0.534-0.066 1.351-0.1 2.45-0.1 0.267 0 0.634-0.017 1.1-0.05 0.233 0.033 0.417 0.133 0.55 0.3zm-13.4 0.65c-1.667 0.233-3.25 0.533-4.75 0.9v-0.05l-0.2 0.05v0.05c-0.3 0.067-0.6 0.133-0.9 0.2-1.767 0.467-3.2 0.95-4.3 1.45-0.033-0.133-0.2-0.217-0.5-0.25-0.3 0-0.467-0.033-0.5-0.1 0.267-0.167 0.817-0.25 1.65-0.25 0.233-0.067 0.583-0.15 1.05-0.25 0.6-0.3 0.983-0.467 1.15-0.5l1.35-0.2c0.2-0.033 0.5-0.15 0.9-0.35 0.367-0.2 0.683-0.316 0.95-0.35l3.05-0.45c0.633-0.1 1.133-0.083 1.5 0.05-0.046 9e-3 -0.088 0.018-0.125 0.025l-0.325 0.025z" fill="#A07A42"/>
	<path d="m54.15 9.45c0.1-0.233 0.149-0.467 0.149-0.7-0.033-0.233-0.116-0.383-0.25-0.45-0.033-0.033-0.184-0.083-0.45-0.15 0.167-0.333 0.25-0.65 0.25-0.95v-0.3c-0.033-0.167-0.083-0.333-0.149-0.5 0.066-0.033 0.116-0.066 0.149-0.1 0.467-0.433-0.133-0.917-1.8-1.45 0-0.033-0.017-0.05-0.05-0.05-0.134-0.133-0.25-0.25-0.35-0.35 0.333 0.033 0.733 0.083 1.199 0.15 1 0.233 1.584 0.633 1.75 1.2 0.067 0.167 0.067 0.4 0 0.7v0.1c-0.033 0.133-0.083 0.217-0.149 0.25l-0.25 0.1 0.101 0.05 0.2 0.1 0.35 0.4c0.167 0.367 0.084 0.8-0.25 1.3-0.1 0.167-0.25 0.383-0.45 0.65zm-5.15 4h-0.1c-0.2-0.333-0.551-0.717-1.051-1.15-0.199-0.167-0.366-0.3-0.5-0.4 0.4-0.033 0.784-0.1 1.15-0.2 0.7-0.2 1.184-0.317 1.45-0.35 0.366-0.067 0.967-0.267 1.8-0.6 0.9-0.233 1.566-0.533 2-0.9l-0.049 0.05c-0.4 0.5-0.983 0.934-1.75 1.3-0.934 0.333-1.634 0.6-2.101 0.8-0.599 0.3-0.882 0.783-0.849 1.45zm-42.975-5.5c0.209 0.51 0.667 1.01 1.375 1.5 0.667 0.466 1.6 0.917 2.8 1.35l-0.15 0.2c-0.267 0.133-0.5 0.183-0.7 0.15-0.434-0.2-0.767-0.333-1-0.4-0.433-0.133-0.817-0.25-1.15-0.35-0.3-0.133-0.567-0.267-0.8-0.4-0.067-0.033-0.117-0.05-0.15-0.05-0.2-0.167-0.383-0.317-0.55-0.45-0.133-0.1-0.233-0.233-0.3-0.4-0.133-0.333-0.15-0.767-0.05-1.3 0.033-0.167 0.083-0.333 0.15-0.5v-0.05c0.2-0.833 0.633-1.433 1.3-1.8-0.567 0.467-0.867 0.983-0.9 1.55l-0.05 0.2v0.1l0.05 0.3 0.125 0.35zm3.975 4.3l0.75-0.45 0.15-0.15c0.033-0.033 0.083-0.05 0.15-0.05 0.2-0.167 0.35-0.283 0.45-0.35h0.05c0.833 0.233 1.767 0.467 2.8 0.7 0.233 0.033 0.467 0.083 0.7 0.15l1.15 0.65c0.3 0.1 0.583 0.2 0.85 0.3-0.367-0.033-0.65-0.1-0.85-0.2-0.1-0.033-0.2-0.067-0.3-0.1-0.066-0.033-0.117-0.05-0.15-0.05-0.133-0.034-0.25-0.067-0.35-0.1h-0.1c-0.3-0.1-0.517-0.167-0.65-0.2h-4.4c-0.167-0.067-0.25-0.117-0.25-0.15zm14.55 1.4c0.367-0.066 0.75-0.183 1.15-0.35 0.167 0 0.35 0.017 0.55 0.05h-0.05c-0.1 0.033-0.2 0.083-0.3 0.15-0.3 0.067-0.65 0.117-1.05 0.15h-0.3zm5.35-0.25h1.449c0.534 0 1.084-0.017 1.65-0.05-0.434 0.1-0.884 0.25-1.35 0.45-0.867 0.434-1.534 0.75-2 0.95-0.367 0.133-0.634 0.167-0.8 0.1l-0.049-1.45h1.1zm4.85-0.1c0.279-0.019 0.563-0.035 0.85-0.05 0.213-0.019 0.43-0.035 0.65-0.05h0.35c0.867-0.034 1.5-0.083 1.9-0.15 0.167-0.033 0.35-0.066 0.55-0.1 1.834-0.2 3.584-0.45 5.25-0.75-0.2 0.233-0.5 0.466-0.899 0.7-0.267 0.1-0.567 0.2-0.9 0.3-0.467 0.1-1 0.2-1.6 0.3-0.101 0.033-0.2 0.05-0.301 0.05-0.066 0-0.116 0.017-0.149 0.05h-0.2c-0.467 0.033-0.967 0.05-1.5 0.05-0.434-0.033-0.9-0.066-1.4-0.1-0.866-0.1-1.566-0.167-2.1-0.2-0.201 0-0.367-0.017-0.501-0.05z" fill="#8F6930"/>
	<path d="m51 6.45c-0.284-0.138-0.584-0.271-0.9-0.4v-0.15c0.101-0.833 0.051-1.5-0.149-2-0.167 0.5-0.283 1.15-0.351 1.95-0.2-0.1-0.4-0.167-0.6-0.2l-0.2-0.1c-0.3-0.1-0.583-0.183-0.85-0.25-0.1-0.033-0.217-0.067-0.35-0.1-0.133-0.034-0.267-0.067-0.399-0.1-0.066-0.033-0.117-0.05-0.15-0.05 0.134-0.033 0.3-0.083 0.5-0.15 0.233-0.1 0.417-0.25 0.55-0.45 0.2-0.5 0.351-0.867 0.45-1.1 0.051 0.017 0.101 0.033 0.15 0.05l0.25 0.05h0.049c0.033 0.333 0.066 0.816 0.1 1.45 0.334-0.133 0.617-0.467 0.851-1l0.049-0.05 0.175 0.075h0.05l0.025 0.025h0.05c0.101 1.833 0.483 2.667 1.15 2.5 0.233-0.067 0.399-0.434 0.5-1.1l0.05-0.5c0.533 0.333 0.934 0.65 1.2 0.95 0.066 0.534 0.05 0.967-0.05 1.3-0.2 0.033-0.45 0.017-0.75-0.05h-0.05c-0.133-0.033-0.234-0.05-0.3-0.05-0.293-0.173-0.61-0.339-0.95-0.5-0.033-0.017-0.067-0.033-0.1-0.05zm-5.45-1.75c0.033-0.767 0.033-1.4 0-1.9l0.101-0.25 0.5 0.1 0.049 0.05c0.233 0.5 0.399 0.966 0.5 1.4l0.149 0.65c0.035 0.067 0.068 0.15 0.101 0.25l0.05 0.05c-0.3-0.066-0.6-0.133-0.9-0.2-0.2-0.067-0.383-0.117-0.55-0.15zm-12.2-1.45c-1.133-0.033-2.3-0.05-3.5-0.05h-1.35l-2.25 0.05c-0.033-0.067-0.05-0.133-0.05-0.2-0.633-0.067-1.6-0.083-2.9-0.05s-2.283 0.017-2.95-0.05c-0.3-0.034-0.483-0.034-0.55 0l-0.05-1.35 0.45 0.1c0 0.6 0.1 0.95 0.3 1.05 0.1 0.1 0.267 0.15 0.5 0.15 0.1 0 0.25-0.017 0.45-0.05h4.85c1.534 0 2.65-0.05 3.351-0.15 0.133 0 0.233-0.017 0.3-0.05 0.033 0 0.133-0.083 0.3-0.25l0.349-0.4c0.101-0.067 0.284-0.067 0.551 0 0.3 0.067 0.483 0.083 0.55 0.05 0.133-0.066 0.3-0.216 0.5-0.45l0.5-0.3 0.1-0.25 0.45 0.05c-0.066 0.6-0.066 1.183 0 1.75 0 0.033 0.017 0.05 0.05 0.05-1e-3 0.133 0.015 0.25 0.049 0.35v-0.05c0.067-0.967 0.051-1.667-0.05-2.1h0.151c0.1 0.767 0.166 1.2 0.2 1.3 0.233 0.367 0.716 0.684 1.449 0.95-0.567-0.033-1.15-0.067-1.75-0.1zm11.2-0.95l0.15 0.05c0.1 0.133 0.184 0.417 0.25 0.85l0.3-0.1c-0.2 0.7-0.2 1.2 0 1.5v0.05l-0.45-0.1-0.075-0.025c-1.647-0.339-3.388-0.614-5.225-0.825 0.2-0.067 0.483-0.133 0.85-0.2 0.134-0.033 0.483-0.017 1.051 0.05 0.399 0.067 0.75 0.017 1.05-0.15l0.6-0.35c0.233-0.133 0.434-0.216 0.601-0.25 0.331-0.067 0.631-0.233 0.898-0.5zm-25.8-0.6l0.325-0.025 0.275-0.025v0.8c-0.033 0.367-0.017 0.633 0.05 0.8-0.133 0.067-0.25 0.083-0.35 0.05-0.333-0.167-0.6-0.267-0.8-0.3h-0.25l0.25-0.15c0.067-0.067 0.1-0.25 0.1-0.55 0.033-0.233 0.167-0.433 0.4-0.6zm-5.05 3.1c-0.1-0.767-0.067-1.483 0.1-2.15v-0.05l0.2-0.05v0.05c0.233 0.633 0.433 1.017 0.6 1.15l0.45 0.15-0.35 0.1c-0.467 0.167-0.7 0.35-0.7 0.55l0.1 0.05v0.1h-0.05c-0.133 0.033-0.25 0.067-0.35 0.1zm-6.75 0.55l0.45-0.3c-0.1 0.1-0.183 0.25-0.25 0.45-0.067 0.1-0.117 0.217-0.15 0.35l-0.1 0.2 0.1-0.7h-0.05zm1.4-0.9l0.2-0.1-0.05 0.35v0.35l-0.15-0.6zm-0.25 0.15c-0.033 0.467-0.033 0.833 0 1.1 0 0.4 0.083 0.633 0.25 0.7l0.05-0.05h0.05l0.05-0.15c0.067-0.167 0.1-0.367 0.1-0.6v-0.1c0.066 0.167 0.217 0.317 0.45 0.45 0.067 0.033 0.15 0.067 0.25 0.1 0.034 0 0.083 0.017 0.15 0.05-0.3 0.1-0.567 0.217-0.8 0.35-0.033-0.067-0.066-0.1-0.1-0.1-0.067 0.067-0.15 0.1-0.25 0.1l-0.3 0.1c-0.367 0.2-0.6 0.283-0.7 0.25l-0.2-0.05c0-0.033-0.033-0.1-0.1-0.2-0.067-0.133-0.067-0.367 0-0.7l0.55-0.95h0.05l0.1 0.15 0.35-0.45h0.05z" fill="#352614"/>
	<path d="m50.15 2.7l0.8 0.3c-0.934 0.133-1.617 0.267-2.05 0.4-0.134-0.1-0.233-0.167-0.301-0.2 0.2-0.1 0.417-0.184 0.65-0.25v0.05h0.85l0.051-0.3zm4.35 4.4l-0.2-0.1 1.8-0.25c-0.066-0.133-0.166-0.217-0.3-0.25h0.5l0.3 0.6-1.2-0.1-0.9 0.1zm0.1-0.6h0.351l-0.351 0.1v-0.1zm-21.85 6.85l1.7-0.1 3.45-2.15 1.6-0.8c1.967-0.966 3.634-1.966 5-3l0.15-0.1 0.3-0.2 1.35-0.75 2.05 0.5 0.9-0.3-2.8 1c-0.334 0.066-0.634 0.167-0.9 0.3-0.033 0-0.283 0.2-0.75 0.6 0.7-0.233 1.934-0.75 3.7-1.55 0.4 0.133 0.684 0.267 0.85 0.4l-7 3.9c-0.333 0.1-0.583 0.316-0.75 0.65 0.601-0.2 1.034-0.383 1.301-0.55 1.566-0.8 3.233-1.7 5-2.7l3.199-2c0.34 0.161 0.657 0.327 0.95 0.5 0.634 0.4 1.117 0.833 1.45 1.3l-0.4-0.45-0.35-0.3c-0.233-0.233-0.483-0.417-0.75-0.55l-0.9-0.5-1.35 0.9 0.1 0.1c-0.566 0.3-1.6 0.95-3.1 1.95l-6.4 3.3 0.95-0.1 3.65-1.95-2.65 1.8 0.5-0.1 4.15-2.7-1.101 0.8c0.434-0.1 0.95-0.3 1.551-0.6 0.366-0.167 0.883-0.433 1.55-0.8l-0.1-0.7 0.05 0.25 1.5-0.8 0.95 0.65-4.3 2.95-0.1 0.1 0.649-0.2 4.15-2.65c0.267 0.2 0.566 0.35 0.9 0.45 0.373-0.311 0.631-0.561 0.774-0.75-0.856 1.21-3.064 2.277-6.625 3.2-0.166 0.033-0.333 0.083-0.5 0.15v0.1c0.3 0.033 0.601 0.05 0.9 0.05 0.866 0.467 1.283 1.033 1.25 1.7l-1.25 0.35-0.05-0.05c-0.2-0.133-0.367-0.25-0.5-0.35-0.467-0.3-0.817-0.55-1.051-0.75-0.433-0.367-0.666-0.55-0.699-0.55l-0.351-0.1c-0.1 0-0.184 0.017-0.25 0.05-1.666 0.3-3.416 0.55-5.25 0.75l-2.149 0.2c-0.101 0-0.2 0.017-0.301 0.05h-0.35c-0.221 0.015-0.438 0.031-0.65 0.05h-0.35l-0.6 0.05h-0.121l-1.526 0.05c-0.566 0.033-1.116 0.05-1.65 0.05l1.4-0.05zm16.15-4.95l1.2-0.75 0.1 0.05 0.8-0.4-2.1 1.1zm1.2-2.35c0.316 0.129 0.616 0.263 0.9 0.4-0.667-0.3-1.333-0.567-2-0.8 0.2 0.033 0.4 0.1 0.6 0.2 0.167 0.033 0.334 0.1 0.5 0.2zm-45.75 52.35c-0.099-0.179-0.199-0.361-0.3-0.551 0.2 0.134 0.367 0.2 0.5 0.2-0.033-1.166-0.133-2.033-0.3-2.6-0.133-0.434-0.3-1.25-0.5-2.45-0.167-1.066-0.367-1.884-0.6-2.45-0.167 0.167-0.267 0.7-0.3 1.601-0.033-0.233-0.1-0.5-0.2-0.801-0.167-0.533-0.267-0.883-0.3-1.05-0.133-1.066-0.15-1.684-0.05-1.85 0.034-0.066 0.117-0.117 0.25-0.15 0.1-0.033 0.167-0.083 0.2-0.149-0.033-0.4-0.05-0.65-0.05-0.75l-0.05-1.3c-0.1-0.3-0.167-0.55-0.2-0.75 0 0.101 0.017 0.301 0.05 0.601 0 0.3-0.133 0.383-0.4 0.25-0.067-0.033-0.167-0.233-0.3-0.601-0.167-0.3-0.25-0.7-0.25-1.2-0.2-0.9-0.316-1.584-0.35-2.051v-1.8c0-0.434 0.033-0.833 0.1-1.2-0.467-0.366-0.65-1.449-0.55-3.249l-0.7-1c0.133-0.866 0.333-1.633 0.6-2.3v-0.6h0.1l-0.05-2.35c0.233-0.8 0.367-1.417 0.4-1.85 0.033-0.567 0.15-1.35 0.35-2.35l1-4.65c0.2-0.967 0.383-1.867 0.55-2.7 0.3 0.3 0.667 0.6 1.1 0.9v0.05c-0.167 1-0.25 1.617-0.25 1.85v0.1c-0.033 1.6-0.267 3.6-0.7 6-0.1 0.633-0.2 1.233-0.3 1.8l1.7-5.7c-0.033 0.3-0.066 0.617-0.1 0.95l-0.1 0.65 1.45-4.75-1.1 6c-0.1 0.6-0.317 1.467-0.65 2.6l-0.25 1.35c-0.033 0.3-0.05 0.583-0.05 0.85-0.067 0.566-0.167 1.066-0.3 1.5-0.1 0.7-0.15 1.433-0.15 2.2l-0.85 2.65c-0.167 0.033-0.25 0.367-0.25 1 0 0.3 0.017 0.667 0.05 1.101v1.85c0 0.434 0.083 1.033 0.25 1.8 0.1 0.9 0.217 1.434 0.35 1.601 0.233 0.431 0.35 0.348 0.35-0.252l-0.2-6.45c0.033-0.533 0.133-1.217 0.3-2.05 0 0.366 0.017 0.733 0.05 1.1 0.033 0.2 0.066 0.4 0.1 0.6-0.034 0.267-0.067 0.551-0.1 0.851-0.067 0.967-0.067 1.733 0 2.3 0.067 0.499 0.267 1.249 0.6 2.249v0.6c0.033 0.267 0.083 0.467 0.15 0.601v-4.25c0.033 0.066 0.066 0.116 0.1 0.149v0.95c0 1.9 0.05 3.084 0.15 3.55l0.85 3c0.066 0.233 0.1 0.584 0.1 1.051 0.167 0.033 0.25-0.134 0.25-0.5-0.033-0.4-0.05-0.634-0.05-0.7l0.2-4.9c0 0.367 0.017 0.783 0.05 1.25 0 0.601 0.083 1.267 0.25 2v-2.901l0.1 4.85-0.1 1.55c0 0.066-0.05 0.15-0.15 0.25-0.367 0.367-0.767 0.134-1.2-0.7-0.159-0.19-0.242-0.415-0.25-0.675 4e-3 0.762 0.121 1.504 0.35 2.226 0.367 1.5 0.567 2.283 0.6 2.35 0.233 0.467 0.65 1.2 1.25 2.2 0.167-0.233 0.267-0.617 0.3-1.15l0.1-3.601-0.25-1.9v-0.1l0.15 1.05 0.1 0.3c0.133 0.334 0.283 0.867 0.45 1.601 0.233-1.334 0.066-3.301-0.5-5.9-0.133-0.567-0.217-1.251-0.25-2.051-0.1-1.267-0.15-1.967-0.15-2.101-0.1-1.066-0.167-2.517-0.2-4.35v-2.2c0.2-0.4 0.316-0.733 0.35-1l-0.35 0.451c0.066-0.567 0.133-1.233 0.2-2 0.034-0.233 0.067-0.45 0.1-0.65l0.2 0.1-0.15-0.55c0.1-1.066 0.233-2.117 0.4-3.15l0.4-0.4-0.1 2.3c-0.133 1-0.283 2.434-0.45 4.3-0.1 0.433-0.15 0.966-0.15 1.6v0.101c-0.433 3.699-0.3 5.582 0.4 5.649 0.066-0.133 0.2-0.717 0.4-1.75l0.15-0.95c-0.033 0.467-0.117 1.084-0.25 1.851-0.167 1.266-0.183 2.449-0.05 3.549 0.066 0.634 0.283 1.566 0.65 2.8 0.033 0.101 0.117 0.4 0.25 0.9 0.095 0.317 0.145 0.609 0.15 0.875v-0.575l0.05 0.2c0.1 0.3 0.284 0.733 0.55 1.3-0.133-3.767-0.1-6.333 0.1-7.7l0.2-0.9 0.3 0.6v-1.4l0.5-0.949c0.2-0.101 0.367-0.2 0.5-0.301 0 0.301 0.033 0.584 0.1 0.851 0.034 0.8 0.067 1.434 0.1 1.899 0.033 0.867 0.067 2.184 0.1 3.95 0.1 1 0.183 2.467 0.25 4.4l-0.4 3.95c-0.067 0.633 0.017 2.083 0.25 4.35l0.5 3.65c0 0.066 0.033 0.216 0.1 0.449-0.767-0.267-1.5-0.55-2.2-0.85-0.267-0.9-0.533-1.684-0.8-2.35 0 0.366 0.066 0.916 0.2 1.649l-0.9-2c-0.467-1.1-0.733-2.533-0.8-4.3l0.05 3.4c0 0.433 0.083 0.966 0.25 1.6 0.067 0.267 0.167 0.667 0.3 1.2-0.466-0.233-0.917-0.483-1.35-0.75-0.1-0.2-0.184-0.367-0.25-0.5-0.267-0.667-0.55-1.584-0.85-2.75-0.1-0.334-0.133-0.8-0.1-1.4 0.033-0.633 0.017-1.1-0.05-1.399-0.1 0.233-0.15 0.55-0.15 0.949 0 0.2 0.017 0.5 0.05 0.9v2.15c0 0.433 0.05 0.85 0.15 1.25-0.2-0.167-0.4-0.317-0.6-0.45l-0.3-0.298zm-1.6-28.45v-0.2c-0.2 1-0.35 1.867-0.45 2.6h0.2c0.033-0.233 0.067-0.483 0.1-0.75 0.1-0.434 0.183-0.8 0.25-1.1-0.033-0.2-0.067-0.383-0.1-0.55zm1.3-17.35c-0.3-0.233-0.55-0.483-0.75-0.75 0.1-0.434 0.15-0.667 0.15-0.7l-0.05-0.25c-0.066-0.133-0.25-0.2-0.55-0.2v-0.15l0.1-0.55 0.55-2.85h0.1c-0.067 0.233-0.1 0.483-0.1 0.75 0 0.767 0.317 1.5 0.95 2.2-0.233 0.7-0.367 1.533-0.4 2.5zm41.55-10.5l-0.2 0.1h-0.05c-0.033-0.233 0.067-0.467 0.301-0.7l0.55 0.1c-0.168 0.2-0.368 0.367-0.601 0.5zm0.85 3.4l-16.55 7.9h-1.2l-0.05 0.55c-0.033 0.233-0.033 0.667 0 1.3v0.5l-2.25-0.05 0.1-0.8-0.15-0.75c0-0.4-0.033-0.65-0.1-0.75l-0.05-0.05h0.05c-0.2-0.033-0.383-0.05-0.55-0.05-1.367-0.066-2.667-0.15-3.9-0.25l-1.95-0.25c0.433-0.167 0.917-0.383 1.45-0.65 0.9-0.467 1.95-1.05 3.15-1.75 0.667-0.367 1.5-0.917 2.5-1.65l3.4-2.45 0.75-0.4c0.301 0 0.483-0.117 0.551-0.35v-0.05l-1.301 0.8-0.9 0.5-0.3 0.1 1.05-0.7-3.7 2c-0.667 0.233-1.183 0.483-1.55 0.75l-0.2 0.2-0.75 0.4-0.25 0.05c-0.7 0.233-1.117 0.45-1.25 0.65l0.25 0.05 0.3-0.05-1.8 1.2c-0.8 0.533-1.467 0.85-2 0.95h-0.1l-0.45-0.2c-0.1 0.1-0.133 0.216-0.1 0.35l0.35-0.05 0.3-0.1-0.6 0.25-2.4-0.3c-0.433-0.1-0.833-0.184-1.2-0.25-0.233-0.067-0.466-0.117-0.7-0.15-1.033-0.233-1.967-0.467-2.8-0.7-0.367-0.133-0.7-0.25-1-0.35l-0.6 0.7c-0.067 0.1-0.133 0.183-0.2 0.25-0.267 0.333-0.45 0.633-0.55 0.9l-0.8-0.3c0.167 0.066 0.35 0.15 0.55 0.25-0.067 0.267-0.167 0.683-0.3 1.25-0.133 0.4-0.217 0.8-0.25 1.2-0.233-0.1-0.433-0.183-0.6-0.25 0.034-0.267 0.05-0.467 0.05-0.6-0.1 0.067-0.233 0.217-0.4 0.45-0.167-0.067-0.317-0.133-0.45-0.2-0.333-0.167-0.633-0.316-0.9-0.45 0.066-0.267 0.117-0.5 0.15-0.7 0.133-0.533 0.3-1.1 0.5-1.7 0.433 0.233 0.933 0.466 1.5 0.7l0.6-0.3c0.067-0.167 0.15-0.283 0.25-0.35 0.4-0.133 0.683-0.267 0.85-0.4 0.2-0.167 0.283-0.35 0.25-0.55-1.2-0.433-2.133-0.883-2.8-1.35-0.333-0.267-0.617-0.517-0.85-0.75-0.087-0.116-0.17-0.232-0.25-0.35 0.363 0.484 0.947 0.968 1.75 1.45l0.75-0.25 0.95-0.35 0.75-0.25-0.45 0.45c0.434-0.167 0.917-0.433 1.45-0.8l-1 0.35 1.05-0.4c0.967-0.667 1.567-1.066 1.8-1.2l0.1-0.1c0.3-0.133 0.583-0.25 0.85-0.35 0.434-0.233 0.784-0.417 1.05-0.55l-0.2 0.05 0.35-0.15 0.9-0.25-0.9 0.45-0.55 0.35 2.35-0.95 1.25-0.2-3.85 1.75 7-2.8-3.7 1.6 4.1-1.55 0.45-0.4 0.3-0.2c0.2-0.1 0.35-0.117 0.45-0.05l0.15 0.15 0.2-0.15h0.6l-1.25 0.55-1.3 0.6 3.9-0.15 1.4-0.9h0.05l0.1-0.05 1.35-0.85h0.05l-0.05 0.05-2.75 1.7h0.1l0.75-0.05-3.6 1.75-1.9 1.25 1.7-0.75-0.1 0.1c0.3 0.1 0.833 0.067 1.6-0.1l0.4-0.1-1.5 0.65c-0.133 0.066-1.034 0.45-2.7 1.15-1.467 0.6-2.583 1.217-3.35 1.85 0.367 0.1 0.934-0.017 1.7-0.35 0.4-0.2 0.867-0.434 1.4-0.7 1.433-0.633 4.633-2.233 9.6-4.8l-1.85 0.8c0.633-0.4 1.35-0.917 2.15-1.55l0.199-0.15 1.151-0.05 0.3-0.05 2.65 0.05c-0.2 0.133-0.517 0.333-0.95 0.6-0.733 0.367-1.184 0.667-1.35 0.9l-0.1 0.15c0.4 0 0.867-0.133 1.4-0.4l0.9-0.45-1.5 0.8c0.266 0.1 0.55 0.083 0.85-0.05 1-0.167 2.416-0.55 4.25-1.15l1.65-0.55-1.45 0.55 1.45 0.25c-1 0.7-1.633 1.133-1.899 1.3-0.733 0.467-1.4 0.75-2 0.85h-0.05l-2.301 0.6c1.233 0.167 2.017 0.217 2.351 0.15 0.3-0.034 0.633-0.184 1-0.45 0.366-0.333 0.633-0.567 0.8-0.7l2.25-1.7 0.15 0.05 2.25 0.5-3.601 2c-1.434 0.867-2.416 1.633-2.95 2.3l0.4-0.3 0.1-0.05-0.6 0.6c0.2 0.133 1.2-0.25 3-1.15l3.1-1.5 3.801-2.4-1.4 1 1.299 0.35 0.55-0.4 0.6-0.1zm-6.75-1.75l-2.45-0.25-1.55-0.15c1.3 0.1 2.566 0.217 3.8 0.35 1.837 0.21 3.578 0.486 5.225 0.825l-0.475-0.075-1.1-0.2c-1.433-0.267-2.584-0.433-3.45-0.5zm-6.9-2.7c-0.033-0.1-0.05-0.233-0.05-0.4l-0.05-0.6c0.333 0 0.6 0.017 0.8 0.05-0.167 0.3-0.134 0.583 0.1 0.85l-0.05 0.15c-0.066-0.033-0.133-0.033-0.2 0-0.033-0.233-0.083-0.45-0.149-0.65-0.066 0.066-0.134 0.267-0.2 0.6h-0.201zm5.75 6.55l4.075-1.95-2.775 1.4c-0.199 0.133-0.433 0.233-0.699 0.3l-0.601 0.25zm6.8 4.35c-0.033 0-0.066 0.017-0.1 0.05 0.1 0.033 0.217 0.083 0.35 0.15 0.233 0.133 0.517 0.35 0.851 0.65 0.133 0.1 0.267 0.217 0.399 0.35l0.15 0.1c-0.233-0.3-0.434-0.55-0.6-0.75-0.167-0.2-0.317-0.367-0.45-0.5-0.066-0.067-0.117-0.117-0.15-0.15-0.166 0.033-0.317 0.067-0.45 0.1zm-2.4 2.85c0.066 0.1 0.116 0.217 0.149 0.35 0.2 0.533 0.351 1.217 0.45 2.05 0 0.1 0.017 0.233 0.05 0.4-0.866 0.133-1.767 0.267-2.699 0.4-0.034-0.3-0.067-0.617-0.101-0.95-0.066-0.7-0.116-1.333-0.149-1.9 0.767-0.1 1.534-0.217 2.3-0.35zm-22.8-13.95h-0.05v0.25c-0.467-0.233-0.883-0.35-1.25-0.35l1.15-0.15 0.15 0.25zm14.95 14.8c1.101-0.066 2.184-0.15 3.25-0.25 0.101 0.5 0.167 1.1 0.2 1.8 0.033 0.367 0.066 0.716 0.101 1.05-1.167 0.1-2.351 0.183-3.551 0.25v-0.9l-0.1 0.9c0-0.633 0.017-1.317 0.05-2.05l0.05-0.8zm0.15 1.5l-0.15-0.55v1l0.15-0.45zm-2.35-1.4l0.1 0.5 0.1 2.2v0.1c-1 0.034-2.017 0.05-3.05 0.05h-1.35v-0.1c0.066-1.233 0.066-2.15 0-2.75h4.2zm-7.9 2.7v-0.3c0-0.767 0.083-1.467 0.25-2.1 0.033-0.133 0.067-0.267 0.1-0.4 0.3 0 0.6 0.017 0.9 0.05-0.033 0.367-0.117 0.9-0.25 1.6-0.067 0.3-0.1 0.7-0.1 1.2-0.3 0-0.6-0.017-0.9-0.05zm-4.7-0.4c-0.167-0.033-0.316-0.066-0.45-0.1 0.066-1 0.167-1.917 0.3-2.75 0.133 0.033 0.25 0.05 0.35 0.05-0.133 0.733-0.2 1.633-0.2 2.7v0.1zm0.95 0.1c-0.033-0.667-0.05-1.217-0.05-1.65 0-0.4 0.033-0.783 0.1-1.15 0.567 0.066 1.167 0.117 1.8 0.15-0.033 0.567-0.117 1.35-0.25 2.35v0.45c-0.533-0.067-1.067-0.117-1.6-0.15zm-6.75-3.5l-0.6 2.2h-0.05l0.45-1.8 0.2-0.4zm-1.1-0.65c-0.066 0.2-0.117 0.417-0.15 0.65-0.1 0.467-0.267 1.1-0.5 1.9-0.133-0.033-0.267-0.066-0.4-0.1 0.066-0.233 0.066-0.4 0-0.5-0.033 0.033-0.117 0.183-0.25 0.45-0.233-0.066-0.483-0.133-0.75-0.2 0.167-0.3 0.333-0.667 0.5-1.1 0.2-0.467 0.35-0.917 0.45-1.35 0.367 0.067 0.733 0.15 1.1 0.25zm-2.45 2.05c0.066-0.533 0.083-1.017 0.05-1.45l-0.8 1.2h-0.1v-0.05c0.333-0.8 0.583-1.617 0.75-2.45 0.133 0.067 0.283 0.117 0.45 0.15 0.034 0 0.067 0.017 0.1 0.05h-0.05l-0.25 2.1c0 0.033-0.033 0.183-0.1 0.45h-0.05zm24.6 8.3c1.533-0.1 3.017-0.233 4.45-0.4 0.333 1.233 0.533 2.267 0.6 3.1v-2.7l0.2 1.35c0.2-0.367 0.316-1 0.351-1.9 0.933-0.167 1.833-0.316 2.699-0.45v0.1c0 0.3-0.017 0.783-0.05 1.45 0 0.6 0.033 1.067 0.101 1.4 0.166-0.133 0.25-0.35 0.25-0.65l0.55-2.5c0.666-0.133 1.333-0.283 2-0.45 0.267 2.133 0.399 4.066 0.399 5.8 0.034 0.967-0.05 2.383-0.25 4.25-0.033 0.8-0.199 2-0.5 3.6-0.267 2.067-0.416 3.184-0.449 3.351-0.034 0.2-0.167 0.8-0.4 1.8-0.1-1.3-0.267-2.467-0.5-3.5-0.267-0.967-0.467-1.7-0.6-2.2-0.233-0.9-0.384-1.65-0.45-2.25v2.101c-0.167 0.233-0.283 0.899-0.351 2-0.466 2.433-0.767 4.316-0.899 5.649l0.05-0.8c0.333-2.9 0.55-4.884 0.65-5.95 0.166-2.267 0.183-4.267 0.05-6-0.033-0.533-0.15-1.167-0.351-1.9-0.233-0.867-0.399-1.517-0.5-1.95-0.233-0.6-0.35-1.067-0.35-1.4-0.033 1.733 0 4.3 0.1 7.7 0 0.8-0.05 1.983-0.149 3.55 0.066 0.767 0.066 1.533 0 2.3 0 0.233-0.283 2.084-0.851 5.551-0.1 0.633-0.316 1.649-0.649 3.05-0.233 1.267-0.267 2.3-0.101 3.1 0.167 0.733 0.584 1.233 1.25 1.5 0 1.9-0.017 3.033-0.05 3.4-0.033 0.633-0.066 1.033-0.1 1.2-0.101 0.3-0.316 0.649-0.65 1.05-0.366 0.399-0.8 0.967-1.3 1.7-0.566 0.866-0.967 1.449-1.2 1.75-1.166 1.399-2 2.566-2.5 3.5-0.434 0.033-0.866 0.066-1.3 0.1v-3.15c-0.033-1.767-0.033-3.55 0-5.35l0.05-0.3c0.267-1.9 0.5-3.316 0.7-4.25 0.134-1.033 0.233-1.8 0.3-2.3 0.4-1.601 0.667-2.817 0.8-3.65 0.167-0.833 0.267-1.65 0.301-2.45l0.449-1.8c0.167-0.733 0.25-2.033 0.25-3.9 0-1.833-0.1-3.05-0.3-3.649l-0.75-1.6c-0.233-2.434-0.5-4.633-0.8-6.6-0.066-0.47-0.134-0.936-0.2-1.403zm10 18.15c0.3 0.1 0.55-0.134 0.75-0.7 0.033-0.066 0.134-0.45 0.3-1.149 0.434-1.601 0.667-2.5 0.7-2.7 0.066-1.533 0.134-2.667 0.2-3.4l0.1-0.95v4.7c-0.8 2.5-1.133 4.467-1 5.9l-2.1 7.6c0.2-0.366 0.684-1.116 1.45-2.25 0.6-0.899 1.017-1.649 1.25-2.25 0.6-1.533 0.899-3.217 0.899-5.05 0.067-0.733 0.101-1.3 0.101-1.7 0-0.767-0.084-1.366-0.25-1.8 0.333-0.9 0.6-1.917 0.8-3.05 0.3-1.5 0.616-3.817 0.95-6.95l0.149 1.1c0.101 1.066 0.151 2.116 0.151 3.149l-0.05 3.7 0.05-0.1v1.2c0 2.033-0.184 3.9-0.55 5.601-0.101 0.5-0.634 2.483-1.601 5.949-0.199 0.801-0.683 1.767-1.449 2.9-0.967 1.5-1.551 2.434-1.75 2.8-0.733 1.4-1.301 2.917-1.7 4.55l0.05-0.6-0.15 0.7 1.2-6.2-0.2 0.65 0.65-2.35-0.05 0.05c0.333-1.133 0.55-2 0.649-2.6 0.334-1.767 0.5-3.566 0.5-5.4l-0.049-1.35zm-11.5 16.45l-0.5 2.3c-0.366 1.467-0.616 2.667-0.75 3.6-0.066-0.033-0.116-0.033-0.149 0 0.133-1.066 0.267-1.949 0.399-2.649l0.75-2.8c0.2-0.934 0.351-1.884 0.45-2.851 0.2-1.833 0.35-3.2 0.45-4.1v0.25l-0.65 6.25zm20.05-1.35c-0.066 0.233-0.149 0.517-0.25 0.851-0.124 0.468-0.308 0.893-0.55 1.274 0.266-0.617 0.533-1.326 0.8-2.125zm-2.75 1.15l0.25-0.45-0.4 0.8 0.15-0.35zm3.55-25.3l0.25-0.5-0.45 1 0.2-0.5zm1-2h0.05v0.15l-0.05-0.15zm-11.3-1.15v2.15c0.067 0.966 0.284 1.617 0.65 1.95l1.2 1c0.1-2.034 0.133-3.601 0.1-4.7-0.066-1.967-0.483-3.434-1.25-4.4-0.467 0.067-0.717 0.684-0.75 1.85-0.033 0.6-0.017 1.317 0.05 2.15zm-13.8-22.1c-0.3 0.2-0.717 0.483-1.25 0.85-0.434 0.267-1.05 0.7-1.85 1.3-0.534 0.333-0.833 0.566-0.9 0.7-1.267 0.733-2.066 1.2-2.4 1.4l-1.15 0.7 0.9 0.05 7.6-4.55-0.95 0.45 0.7-0.5 0.7-1c-0.367 0.033-0.834 0.233-1.4 0.6zm0.8 2.35c0.567 0.067 1.051 0 1.45-0.2 0.434-0.167 1.066-0.583 1.9-1.25 1.066-0.667 1.833-1.217 2.3-1.65-0.934 0.333-2.184 1.017-3.75 2.05-0.134 0.1-0.384 0.267-0.75 0.5-0.3 0.167-0.566 0.233-0.8 0.2-0.066-0.167 0.017-0.383 0.25-0.65 0.166-0.2 0.35-0.35 0.55-0.45l-1.3 0.6c-0.3 0.467-0.25 0.75 0.15 0.85zm1.85-1.3c1.7-0.8 4.2-2.067 7.5-3.8l-7.101 2.9c-0.799 0.733-1.249 1.15-1.349 1.25l0.95-0.35zm4.05 1.5l1.4-0.75-3.051 1.9 1.851-1.25-0.2 0.1zm-10.5-5.95c0.3 0 0.567-0.05 0.8-0.15l0.65-0.1-4.7 2.55c-0.167-0.1-0.417-0.1-0.75 0 0.933-0.467 2.267-1.233 4-2.3zm-6.4 3.25l0.35-0.1 1.05-0.65c0.4-0.3 0.55-0.4 0.45-0.3l0.3-0.2-0.45 0.2 2.15-1.3-10.65 6.1 0.45 0.1 4-2.45 0.1-0.05 2.25-1.35zm-0.8-3.45l1.4-0.5 1.8-0.65-6.6 2.55 3.4-1.4zm3.5 3.75c-0.8 0.267-1.816 0.783-3.05 1.55 0.7-0.233 1.267-0.467 1.7-0.7l1.35-0.85zm1.65 1.95l7.25-4.35-5.85 3.3c-0.767 0.467-1.233 0.817-1.4 1.05zm3.15 3.1c-0.1-0.033-0.2-0.033-0.3 0-0.2-0.033-0.383-0.05-0.55-0.05 0.033 0.533 0.117 1.2 0.25 2 0.233 0.066 0.4-0.367 0.5-1.3 0.033-0.233 0.067-0.45 0.1-0.65zm-9.5 10.4c0.1 0 0.2 0.017 0.3 0.05 0.167 2.433 0.333 4.283 0.5 5.55 0.133-0.3 0.15-1.1 0.05-2.4 0-1.067 0.017-2.083 0.05-3.05 0.4 0.033 0.833 0.083 1.3 0.15 0.1 0.566 0.25 1.3 0.45 2.2v-2.15c1.533 0.133 3.117 0.25 4.75 0.35v1.45c-0.067 0.466-0.283 0.767-0.65 0.9-0.267 0.133-0.633 0.05-1.1-0.25-0.333-0.2-0.533-0.367-0.6-0.5-0.1-0.133-0.15-0.317-0.15-0.55-0.033 0.5 0.117 1.017 0.45 1.55 0.367 0.667 0.816 0.967 1.35 0.9l0.6-0.2c0.2-0.066 0.383-0.017 0.55 0.15l0.25 0.8c0.4 1.233 0.617 2.05 0.65 2.45 0.033 0.633-0.05 1.2-0.25 1.7-0.434 0.967-0.684 2.183-0.75 3.65l-0.1 12.101c0.067-1.2 0.383-2.801 0.95-4.801 0.167-0.8 0.3-1.383 0.4-1.75 0.167-0.699 0.333-1.283 0.5-1.75 0.467-1.1 0.8-2.616 1-4.55 0.101-1.433 0.15-2.917 0.15-4.45-0.2-3-0.283-5.267-0.25-6.8h1.95c0 0.267 0.017 0.55 0.05 0.85 0 4.8-0.017 7.5-0.05 8.1-0.033 0.933-0.167 2.333-0.4 4.2-0.267 1.833-0.416 3.217-0.45 4.149-0.033 1.101 0.017 2.784 0.15 5.051l0.85 0.85v-1.5c0.301-1.2 0.5-2.116 0.601-2.75l0.399-3.5c0.167-1.866 0.167-4.05 0-6.55-0.267-2.9-0.466-5.083-0.6-6.55-0.033-0.867-0.05-1.55-0.05-2.05v-0.3c0.666-0.033 1.333-0.05 2-0.05 0.066 1.5 0.133 3.267 0.2 5.3 0.066 2.4 0.1 6.017 0.1 10.851 0 1.933-0.116 4.133-0.35 6.6-0.034 0.434-0.284 2.634-0.75 6.6-0.067 0.567-0.233 1.517-0.5 2.851-0.233 1.2-0.384 2.149-0.45 2.85-0.101 0.967-0.184 2.434-0.25 4.4l-0.2 0.95h-2l0.25-1.351-0.05 0.101c0.467-2.301 0.717-4.334 0.75-6.101 0.033-1.033 0-2.5-0.101-4.399-0.066-2.034-0.1-3.517-0.1-4.45-0.167 0.7-0.316 1.75-0.45 3.149-0.2 1.4-0.366 2.45-0.5 3.15-0.333 1.667-0.783 4.167-1.35 7.5-0.1 0.934-0.217 1.717-0.35 2.35-0.633-0.033-1.267-0.066-1.9-0.1-0.067-0.366-0.1-1.184-0.1-2.45 0-3.467-0.317-5.116-0.95-4.95-0.3 0.5-0.433 1.267-0.4 2.301 0 0.566 0.033 1.35 0.1 2.35 0 0.866 0.066 1.483 0.2 1.85 0.133 0.334 0.333 0.634 0.6 0.9-0.566-0.033-1.133-0.083-1.7-0.15l-0.05-0.05c-0.6-1.666-0.95-3.133-1.05-4.399v-2.853c0-1.8-0.133-3.717-0.4-5.75-0.034-1.733-0.067-3.05-0.1-3.95-0.167-5.899-0.25-9.233-0.25-10-0.167 2.067-0.383 3.851-0.65 5.351-0.167 1.233-0.284 2.55-0.35 3.95 0 0.8-0.067 1.35-0.2 1.649-0.066 0.134-0.2 0.267-0.4 0.4-0.2 0.166-0.333 0.3-0.4 0.399-0.133 0.367-0.017 0.817 0.35 1.351 0.233 0.3 0.533 0.666 0.9 1.1 0.333 0.601 0.5 1.617 0.5 3.05v5.05c0 0.633-0.017 1.6-0.05 2.899 0 0.566 0.034 1.101 0.1 1.601-0.467-0.067-0.917-0.134-1.35-0.2-0.1-0.334-0.183-0.717-0.25-1.15-0.133-1.1-0.233-2.2-0.3-3.3l0.05-1.2c0.233 0.233 0.367 0.351 0.4 0.351 0.133-0.467 0.1-1.167-0.1-2.101-0.267-1.1-0.4-1.8-0.4-2.1 0.033-0.634 0-1.4-0.1-2.3-0.1-1-0.167-1.75-0.2-2.25-0.033-0.233-0.05-1.017-0.05-2.351 0-0.366 0.167-0.733 0.5-1.1 0.333-0.4 0.533-0.75 0.6-1.05 0.267-1.233 0.233-2.733-0.1-4.5-0.467-1.967-0.8-3.434-1-4.4-0.2-1.033-0.333-2.4-0.4-4.1 0.2-1.733 0.3-3.033 0.3-3.9l-0.05-0.8-1.1 3.2c-0.1 0.2-0.133 0.583-0.1 1.15 0.033 0.333 0.067 0.75 0.1 1.25 0 0.467 0.017 1.2 0.05 2.2-0.033 0.833-0.133 1.55-0.3 2.15-0.267 1-0.434 1.75-0.5 2.25l-0.249 1.251v5.85c0.133 2.4 0.65 5.366 1.55 8.9-0.033-0.167-0.05-0.684-0.05-1.551 0.167 0.067 0.3 0.834 0.4 2.301 0.133 0.433 0.317 0.85 0.55 1.25l-0.05 0.45c-0.1 1.2-0.067 2.267 0.1 3.2 0.133 0.9 0.316 1.7 0.55 2.4-0.4-0.066-0.783-0.134-1.15-0.2-0.167-0.6-0.333-1.35-0.5-2.25-0.233-1.066-0.367-2.083-0.4-3.05 0 2.166 0.083 3.8 0.25 4.899 0 0.101 0.017 0.2 0.05 0.301-0.6-0.101-1.2-0.217-1.8-0.351-0.233-0.633-0.4-1.184-0.5-1.649-0.133-0.567-0.217-1.284-0.25-2.15-0.033-1-0.067-1.733-0.1-2.2l-0.2-3.2c0.1 0.367 0.233 0.617 0.4 0.75 0.066-0.3 0.066-0.699 0-1.199-0.133-0.733-0.2-1.134-0.2-1.2-0.1-1-0.117-2.167-0.05-3.5-0.2 1.267-0.317 2.217-0.35 2.85-0.1-2.899-0.15-4.366-0.15-4.399-0.067-3-0.184-5.267-0.35-6.801-0.033-0.433-0.033-1.033 0-1.8 0.033-0.866 0.05-1.483 0.05-1.85l0.6-1.8c0.233-0.734 0.35-1.851 0.35-3.351v-0.05c0-0.033 0.05-0.317 0.15-0.85l0.5-2.25c0.3-1.533 0.467-2.983 0.5-4.35 0-0.3 0.033-0.65 0.1-1.05 0.5 0.067 1.017 0.15 1.55 0.25 0.133 0.4 0.283 0.85 0.45 1.35 0.058 0.146 0.117 0.354 0.175 0.625-0.086-0.471-0.144-0.829-0.175-1.075v-0.85zm-9.15 19.5c-0.067 1.533-0.1 3.816-0.1 6.851 0 0.433-0.017 1.1-0.05 2 0 0.8 0.05 1.466 0.15 2 0.333 1.3 0.65 1.716 0.95 1.25 0.033-0.067 0.05-0.434 0.05-1.101-0.1-1.866-0.167-3.267-0.2-4.2v-9.15l-0.8 2.35zm28.25-30.25c0.233-0.167 0.767-0.483 1.6-0.95l2-1.2-4.7 2.25 1.1-0.1zm-18.95-12.3c0.1 0.233 0.25 0.417 0.45 0.55l-0.9-0.45 0.45-0.1zm-11.55 6.6c0.367-0.3 0.85-0.6 1.45-0.9 0.233-0.133 0.5-0.25 0.8-0.35-0.937 0.398-1.687 0.815-2.25 1.25zm5.8 1.9c0.3 0.067 1.183-0.35 2.65-1.25l1.45-0.7c1.7-0.8 2.95-1.383 3.75-1.75l-5.2 2.2-0.05 0.05-1.55 0.8c-0.7 0.4-1.05 0.617-1.05 0.65zm0.8 2.55l3.1-1.95-4.9 1.45c0.433 0.167 1.033 0.333 1.8 0.5zm2.8-2.95c0.6-0.133 1.683-0.467 3.25-1l-2.95 0.7c-0.1 0.167-0.2 0.267-0.3 0.3zm0.9 3c0.167-0.1 0.35-0.3 0.55-0.6h-0.3c0-0.1 0.033-0.167 0.1-0.2l-1.4 0.65-0.05 0.1c0.1 0.067 0.283 0.1 0.55 0.1 0.233 0 0.417-0.017 0.55-0.05zm0.55-0.6c0.3-0.033 0.667-0.233 1.1-0.6l1.1-0.75c-0.967 0.434-1.6 0.767-1.9 1l-0.3 0.35zm-10.2-7.05h-0.3c0.104 2e-3 0.221 0.035 0.35 0.1-0.267-0.067-0.567-0.117-0.9-0.15h-0.35l0.25-0.1c0.033 0 0.35 0.05 0.95 0.15zm-2.15 6.9c-0.1 0.2-0.133 0.483-0.1 0.85 0.033 0.333 0.066 0.75 0.1 1.25v0.65c-0.3-0.2-0.567-0.367-0.8-0.5 0.133-0.733 0.383-1.5 0.75-2.3l0.05 0.05zm3.05-1.5l-0.65 0.25 0.45 0.2 0.8 0.35 0.05-0.15 0.05-0.3c0.067-0.333 0.15-0.567 0.25-0.7l-0.95 0.35zm0.85 3.3l-0.3-0.1 0.45-0.4 0.45-0.3-0.2 0.15c0 0.033 0.083 0.083 0.25 0.15l-0.6 0.5h-0.05zm-2.1 8.05c-0.033 0.333-0.05 0.7-0.05 1.1l-0.05 0.25c-0.033-0.2-0.05-0.367-0.05-0.5-0.033-0.3-0.067-0.583-0.1-0.85 0-0.034 0.017-0.067 0.05-0.1 0.067 0.033 0.133 0.067 0.2 0.1zm0.75 0.3c-0.067 0.2-0.2 1.15-0.4 2.85v-0.1c0-0.633 0.017-1.167 0.05-1.6 0.067-0.4 0.133-0.8 0.2-1.2 0.067 0 0.117 0.017 0.15 0.05zm2.15 6.3c-0.066 0.467-0.117 0.883-0.15 1.25-0.033 0.2-0.05 0.4-0.05 0.6-0.4 0.067-0.8 0.3-1.2 0.7l0.2-1.5v-0.85c0.033-1.433 0.35-3.033 0.95-4.8l0.35-0.95c0.233 0.067 0.483 0.15 0.75 0.25l-0.15 0.6c-0.233 0.4-0.4 1.033-0.5 1.9-0.067 0.467-0.117 1.117-0.15 1.95-0.033 0.267-0.05 0.55-0.05 0.85zm-8.15-10c-0.033 0.067-0.067 0.133-0.1 0.2-0.3 0.867-0.45 1.35-0.45 1.45 0.033-0.967 0.083-1.7 0.15-2.2 0.133 0.167 0.267 0.35 0.4 0.55zm13.25 29.95l-0.15-2.1c-0.1 2.5-0.15 3.767-0.15 3.8l0.3-1.7zm-7.85-21.4c-0.066-0.167-0.117-0.35-0.15-0.55v-0.6c0.033-0.233 0.067-0.467 0.1-0.7 0.066 0.2 0.117 0.5 0.15 0.9-0.067 0.333-0.1 0.65-0.1 0.95zm11.35-11.05c-0.233 0.767-0.367 1.684-0.4 2.75 0-1 0.033-1.933 0.1-2.8 0.1 0.033 0.2 0.05 0.3 0.05zm-7.55 11.35l0.1 0.1c-0.058 0.292-0.108 0.6-0.15 0.925 0.033-0.359 0.05-0.7 0.05-1.025zm2.4 34.1c-0.367-1.434-0.617-2.517-0.75-3.25v-1c0-2.667-0.05-4.783-0.15-6.35l0.05-2.7c0.067-0.267 0.1-0.617 0.1-1.05-0.033-0.434-0.05-0.767-0.05-1l0.05-4.7 0.1 0.149c0.167-0.1 0.283-0.3 0.35-0.6 0.034-0.366 0.05-0.616 0.05-0.75l0.1-0.35c-0.1 0.633-0.133 1.583-0.1 2.85 0.033 1.3 0.017 2.233-0.05 2.8-0.1 1.533-0.033 3.8 0.2 6.8 0.067 3.767 0.25 7.134 0.55 10.101l-0.45-0.95zm0.2 0.7l0.15 0.55-0.35-1.15 0.2 0.6zm2.15-26c-0.5 1.399-0.75 2.416-0.75 3.05 0 1.134 0.05 2.833 0.15 5.1 0.066-0.199 0.117-0.466 0.15-0.8v-0.8c0.067-0.8 0.317-2.316 0.75-4.55 0.333-1.533 0.483-3.333 0.45-5.4 0-0.233-0.067-2.033-0.2-5.4v5.75c0.067 0.8-0.117 1.817-0.55 3.05zm-12.15-10.15l-0.7 2.3v1.05l0.45-1.4c0.033-0.567 0.117-1.217 0.25-1.95zm-2.45 12.35l-0.1-0.1c-0.033 0.533-0.067 1.117-0.1 1.75l0.25-1 0.05-0.5-0.1 4.1c0 1.6 0.25 2.5 0.75 2.699 0-0.066-0.1-0.433-0.3-1.1-0.066-0.434-0.1-0.967-0.1-1.6 0.033-0.732 0.05-1.283 0.05-1.649 0-2.833 0.017-4.917 0.05-6.25-0.066 0.367-0.117 0.6-0.15 0.7-0.066 0.367-0.133 0.816-0.2 1.35l-0.2 1.35v0.05l0.1 0.2zm37.45-3.15l-1.1-4.15v11.95l-1.351 8.5c0.367-0.033 0.617-0.35 0.75-0.95 0.101-0.699 0.167-1.149 0.2-1.35 0.467-1.634 0.75-2.917 0.851-3.85 0.6-2.867 0.883-5.067 0.85-6.601 0.033-0.767 0.05-1.35 0.05-1.75-0.033-0.699-0.116-1.299-0.25-1.799zm-4.05 15.65l0.35-2.351v0.451l-0.35 1.9zm-0.05 0.65l-0.05 0.05v-0.05h0.05zm-12.4-15.1c-0.066 0.733-0.133 1.833-0.2 3.3v3.35c0 0.733-0.05 1.834-0.15 3.301 0 1.133 0.167 2.733 0.5 4.8 0.3 1.767 0.517 2.883 0.65 3.35 0.066 0.167 0.133 0.483 0.2 0.95 0.1 0.366 0.25 0.616 0.45 0.75 0.133-0.167 0.183-0.5 0.15-1v-1c0.067-1.8 0.1-4.5 0.1-8.1l-0.05-14.051 0.05-0.6-0.9 1.75c-0.433 0.8-0.7 1.867-0.8 3.2zm5.7 6.95v0.6c0.067-0.233 0.15-0.4 0.25-0.5l-0.25-0.1zm0 4.1v-3.5c-0.033 0.1-0.117 0.767-0.25 2-0.1 1.233-0.05 2.033 0.15 2.4 0.067-0.2 0.1-0.5 0.1-0.9zm2.35 3.7c-0.133 0.3-0.199 1.184-0.199 2.649l-0.151 7.551-0.75 3.15 0.35-0.399c0.801-1.233 1.25-2.784 1.351-4.65 0.166-2.267 0.133-4.366-0.101-6.3-0.067-0.868-0.234-1.534-0.5-2.001zm-22.85 1.75l0.45 1.7 0.15 1.15c0.066 0.334 0.183 0.434 0.35 0.3 0.133-0.1 0.15-0.616 0.05-1.55 0.067-1.2 0.017-2.399-0.15-3.6l-0.65-0.15c-0.367 0.3-0.433 1.016-0.2 2.15zm33.15 10.9v-0.15l0.05-0.05-0.05 0.2z" fill="#654B21"/>
	<path d="m54.95 6.5c0.434-0.067 0.717-0.067 0.85 0 0.134 0.033 0.233 0.117 0.3 0.25l-1.8 0.25-0.1-0.05 0.25-0.1c0.066-0.033 0.116-0.117 0.149-0.25l0.351-0.1zm-5.7-3.55c-0.033-0.133 0.1-0.267 0.4-0.4l0.5 0.15-0.05 0.3h-0.85v-0.05zm-39.95 9.85l-0.1-0.05c0.1-0.267 0.283-0.567 0.55-0.9 0.067-0.067 0.133-0.15 0.2-0.25l0.6-0.7c0.3 0.1 0.633 0.217 1 0.35h-0.05c-0.1 0.067-0.25 0.183-0.45 0.35-0.066 0-0.117 0.017-0.15 0.05l-0.15 0.15-0.55 0.3-0.45 0.3-0.45 0.4zm36.05-0.85c0.134-0.034 0.284-0.067 0.45-0.1 0.033 0.033 0.084 0.083 0.15 0.15 0.133 0.133 0.283 0.3 0.45 0.5 0.166 0.2 0.366 0.45 0.6 0.75l-0.15-0.1c-0.133-0.133-0.267-0.25-0.399-0.35-0.334-0.3-0.617-0.517-0.851-0.65-0.133-0.066-0.25-0.117-0.35-0.15 0.033-0.033 0.066-0.05 0.1-0.05zm-17.25 1.45c-0.033 0.2-0.067 0.417-0.1 0.65-0.1 0.934-0.267 1.367-0.5 1.3-0.133-0.8-0.217-1.467-0.25-2 0.167 0 0.35 0.017 0.55 0.05 0.1-0.033 0.2-0.033 0.3 0z" fill="#503B1A"/>
	<path d="m53.2 5.8c0.333 0.333 0.55 0.7 0.649 1.1v0.3c0 0.3-0.083 0.617-0.25 0.95-0.033 0.033-0.066 0.083-0.1 0.15-0.333-0.466-0.816-0.9-1.45-1.3 0.066 0 0.167 0.017 0.3 0.05h0.051c0.3 0.067 0.55 0.083 0.75 0.05 0.1-0.333 0.117-0.767 0.05-1.3zm-44.55 0.65c-0.6 0.3-1.083 0.6-1.45 0.9l-0.95 0.95c0.013 0.018 0.03 0.034 0.05 0.05 0.08 0.118 0.163 0.234 0.25 0.35l-0.15-0.15c-0.167-0.208-0.292-0.408-0.375-0.6l-0.125-0.35-0.05-0.3v-0.1l0.05-0.2c0.067-0.533 0.417-1.083 1.05-1.65h0.05l-0.1 0.7 0.1-0.2c-0.067 0.333-0.067 0.566 0 0.7 0.067 0.1 0.1 0.167 0.1 0.2l0.2 0.05c0.1 0.033 0.333-0.05 0.7-0.25l0.3-0.1c0.1 0 0.184-0.034 0.25-0.1 0.033 0 0.067 0.033 0.1 0.1zm36.9-3.65c0.033 0.5 0.033 1.133 0 1.9-0.066 0-0.116-0.017-0.149-0.05h-0.15v-0.05c-0.2-0.3-0.2-0.8 0-1.5 0.033-0.2 0.116-0.4 0.25-0.6l0.049 0.3zm4.55 3.25c-0.166-0.1-0.333-0.167-0.5-0.2 0.067-0.8 0.184-1.45 0.351-1.95 0.2 0.5 0.25 1.167 0.149 2v0.15zm-16.75-2.8c-0.033-0.1-0.05-0.217-0.05-0.35-0.033 0-0.05-0.017-0.05-0.05-0.066-0.567-0.066-1.15 0-1.75h0.05c0.101 0.433 0.117 1.133 0.05 2.1v0.05zm-19.25 1.45v-0.1l-0.1-0.05c0-0.2 0.233-0.383 0.7-0.55l0.35-0.1 1.2-0.15c0.4-0.033 0.733-0.15 1-0.35 0.267-0.267 0.517-0.4 0.75-0.4h0.25c0.2 0.033 0.467 0.133 0.8 0.3 0.1 0.034 0.217 0.017 0.35-0.05-0.066-0.167-0.083-0.433-0.05-0.8v-0.8l0.4-0.05 0.05 1.35c0.067-0.034 0.25-0.034 0.55 0 0.667 0.067 1.65 0.083 2.95 0.05s2.267-0.017 2.9 0.05c0 0.067 0.017 0.133 0.05 0.2h-0.25c-0.5 0.033-1 0.067-1.5 0.1l-1.5 0.1c-0.1 0-0.183 0.017-0.25 0.05l-8.25 1.15h-0.15c-0.067 0.033-0.15 0.05-0.25 0.05zm-6-0.1l0.25-0.15 0.15 0.6 0.1 0.45v0.1c0 0.233-0.033 0.433-0.1 0.6l-0.05 0.15h-0.05l-0.05 0.05c-0.167-0.067-0.25-0.3-0.25-0.7-0.033-0.267-0.033-0.633 0-1.1z" fill="#271C0F"/>
	<path d="m53.425 8.4c-0.144 0.189-0.401 0.439-0.774 0.75-0.334-0.1-0.634-0.25-0.9-0.45l-4.15 2.65-0.649 0.2 0.1-0.1 4.3-2.95-0.952-0.65-1.5 0.8-0.05-0.25h0.05l2.1-1.1-0.8 0.4-0.1-0.05 0.6-0.45c-0.134-0.067-0.417 0.033-0.851 0.3l-0.1-0.1 1.35-0.9 0.901 0.5c0.267 0.133 0.517 0.317 0.75 0.55l0.35 0.3 0.4 0.45-0.05 0.05-0.025 0.05zm-2.325-1.9l-3.199 2c-1.767 1-3.434 1.9-5 2.7-0.267 0.167-0.7 0.35-1.301 0.55 0.167-0.333 0.417-0.55 0.75-0.65l7-3.9c-0.166-0.133-0.45-0.267-0.85-0.4l0.75-0.35-0.9 0.3-2.05-0.5-1.35 0.75-0.3 0.2 1.55-1.15-2.05 1.05 3.45-1.9c0.134 0.033 0.25 0.066 0.351 0.1 0.267 0.067 0.55 0.15 0.85 0.25l0.2 0.1c0.667 0.233 1.333 0.5 2 0.8 0.032 0.017 0.066 0.033 0.099 0.05zm-4.05-1.45c0.033 0 0.084 0.017 0.15 0.05l-0.75 0.4-0.6 0.1-0.55 0.4-1.3-0.35 1.4-1c0.033 0.033 0.083 0.05 0.149 0.05 0.167 0.033 0.351 0.083 0.55 0.15 0.301 0.067 0.601 0.133 0.901 0.2h0.05zm-4.425 0.6l-4.075 1.95c-0.967 0.367-1.783 0.867-2.45 1.5l-0.1 0.05-0.4 0.3c0.534-0.667 1.517-1.434 2.95-2.3l3.601-2-2.25-0.5-0.151-0.05-2.25 1.7c-0.167 0.133-0.434 0.367-0.8 0.7-0.367 0.267-0.7 0.417-1 0.45-0.334 0.066-1.117 0.017-2.351-0.15l2.301-0.6h0.05c0.6-0.1 1.267-0.383 2-0.85 0.267-0.167 0.899-0.6 1.899-1.3l-1.449-0.25 1.45-0.55h0.1c0.866 0.067 2.017 0.233 3.45 0.5-0.301 0.233-0.601 0.517-0.9 0.85l-0.8 0.8 2.8-1.45 0.475 0.075 0.075 0.025-2.175 1.1zm-5.375-2.15c-0.3 0.033-0.983 0.283-2.05 0.75l-0.85 0.45-0.9 0.45c-0.533 0.267-1 0.4-1.4 0.4l0.1-0.15c0.166-0.233 0.616-0.533 1.35-0.9 0.434-0.267 0.75-0.467 0.95-0.6l-2.65-0.05c1.2-0.1 2.384-0.25 3.55-0.45h0.2l0.15-0.05 1.55 0.15zm-16.65 4.55l1.7-1.05 0.45-0.2-0.3 0.2c0.1-0.1-0.05 0-0.45 0.3l-1.05 0.65-0.35 0.1zm6.4-3.25c-1.733 1.067-3.067 1.833-4 2.3 0.333-0.1 0.583-0.1 0.75 0l4.7-2.55 0.9-0.55c0.434 0 0.767-0.017 1-0.05l-0.2 0.15c-0.8 0.633-1.517 1.15-2.15 1.55l-3.3 1.4-0.4 0.1c-0.767 0.167-1.3 0.2-1.6 0.1l0.1-0.1-1.7 0.75 1.9-1.25 3.6-1.75 1.6-0.8-1.2 0.7zm-2.75-0.8l2.9 0.05-0.1 0.05h-0.05l-3.3 0.45h-0.7l1.25-0.55zm-0.95 0h0.35l-0.2 0.15-0.15-0.15zm-1.8 0.1l1.35-0.05-0.3 0.2-0.45 0.4-4.1 1.55 3.7-1.6h-1.45l1.25-0.5zm-12.7 5.45c0.367-0.667 0.917-1.216 1.65-1.65 0.867-0.533 1.883-1.017 3.05-1.45-0.533 0.4-0.933 0.667-1.2 0.8l-0.1 0.1c-0.833 0.467-1.483 0.9-1.95 1.3-0.233 0.2-0.4 0.383-0.5 0.55l-0.95 0.35zm14.25 0.7c0.434-0.067 0.767-0.167 1-0.3 1.233-0.467 2.934-1.483 5.101-3.05l0.3-0.1 0.899-0.5 1.301-0.8v0.05c-0.068 0.233-0.251 0.35-0.551 0.35l-0.75 0.4-3.4 2.45c-1 0.733-1.833 1.283-2.5 1.65l-0.9 0.5-3.45 1.3c-0.067 0.1-0.1 0.267-0.1 0.5l-0.75-0.3-0.3 0.1-0.35 0.05c-0.033-0.133 0-0.25 0.1-0.35l0.45 0.2h0.1c0.533-0.1 1.2-0.417 2-0.95l1.8-1.2zm3.45-2.05l-1.75 0.95 0.2-0.2c0.367-0.267 0.883-0.517 1.55-0.75zm18.45 2.5l-3.65 1.95-0.95 0.1 6.4-3.3c-0.134 0.1-0.217 0.167-0.25 0.2l-1.55 1.05zm-13.35-0.15c-0.399-0.1-0.449-0.383-0.149-0.85l1.3-0.6c-0.2 0.1-0.384 0.25-0.55 0.45-0.233 0.267-0.316 0.483-0.25 0.65 0.233 0.033 0.5-0.034 0.8-0.2 0.366-0.233 0.616-0.4 0.75-0.5 1.566-1.033 2.816-1.717 3.75-2.05-0.467 0.433-1.233 0.983-2.3 1.65-0.834 0.667-1.467 1.083-1.9 1.25-0.401 0.2-0.884 0.267-1.451 0.2zm-0.8-2.35c0.566-0.367 1.033-0.567 1.4-0.6l-0.7 1-0.7 0.5 0.95-0.45-7.6 4.55-0.9-0.05 1.15-0.7c0.333-0.2 1.133-0.667 2.4-1.4 0.067-0.133 0.367-0.367 0.9-0.7 0.8-0.6 1.416-1.033 1.85-1.3 0.533-0.367 0.95-0.65 1.25-0.85zm7.1 2.9l-3.45 2.15-1.7 0.1 1.1-0.6 2-0.85c-0.333 0.167-0.566 0.367-0.699 0.6 0.133 0 0.283-0.083 0.449-0.25 0.7-0.467 1.466-0.85 2.3-1.15zm-14.6-2.75l-1.35 0.85c-0.434 0.233-1 0.466-1.7 0.7 1.233-0.767 2.25-1.283 3.05-1.55zm14.4 4.7l-1.101 0.1 4.7-2.25-2 1.2c-0.832 0.467-1.365 0.783-1.599 0.95zm-16.5-8.95l-1.4 0.5h-0.25c-0.1 0.033-0.216 0.066-0.35 0.1l-1.8 0.75c-0.1 0.033-0.183 0.066-0.25 0.1h-0.05c-0.467 0.2-1.15 0.367-2.05 0.5h-0.25c0.467-0.2 1.117-0.55 1.95-1.05l2.1-0.6c0.533-0.133 1.317-0.233 2.35-0.3zm-7.4 7.7c-0.767-0.167-1.367-0.333-1.8-0.5l4.9-1.45-3.1 1.95zm4.25-0.55l0.3-0.35c0.3-0.233 0.933-0.566 1.9-1l-1.1 0.75c-0.433 0.367-0.8 0.567-1.1 0.6zm-0.55 0.6c-0.133 0.033-0.317 0.05-0.55 0.05-0.267 0-0.45-0.033-0.55-0.1l0.05-0.1 1.4-0.65c-0.067 0.034-0.1 0.1-0.1 0.2h0.3c-0.2 0.3-0.383 0.5-0.55 0.6zm-0.9-3c0.1-0.033 0.2-0.133 0.3-0.3l2.95-0.7c-1.567 0.533-2.65 0.867-3.25 1zm-8.05 1.2l0.2-0.45 0.95-0.35c-0.1 0.133-0.184 0.367-0.25 0.7l-0.05 0.3-0.05 0.15-0.8-0.35z" fill="#4F3A1A"/>
	<path d="m49.1 13.4c0.067 0.333 0.117 0.667 0.15 1 0.066 0.467 0.083 1.1 0.05 1.9-0.434 0.1-0.883 0.217-1.35 0.35-0.033 0-0.066 0.017-0.101 0.05-0.199-0.7-0.416-1.317-0.649-1.85l-0.35-0.85c0.101-0.033 0.217-0.05 0.351-0.05l1.25-0.35c0.166-0.067 0.333-0.117 0.5-0.15h0.049c0.033-0.033 0.066-0.05 0.1-0.05zm6.4 44.8c-0.566 0.566-1.333 1.149-2.3 1.75l0.05-0.15c0.017-0.025 0.033-0.051 0.05-0.075 0.242-0.382 0.426-0.807 0.55-1.274 0.101-0.334 0.184-0.617 0.25-0.851 0.034-0.166 0.084-0.35 0.15-0.55v-0.15c0.134-0.4 0.434-1.051 0.9-1.95 0.433-0.767 0.699-1.417 0.8-1.95 0.5-3 0.95-5.2 1.35-6.6 0.2-0.634 0.283-1.434 0.25-2.4-0.033-1.066-0.05-1.866-0.05-2.4l-0.3-11.5c-0.066 0.367-0.15 0.933-0.25 1.7-0.134 0.7-0.3 1.267-0.5 1.7l-0.05 0.1-0.3 0.7-0.25 0.6c-0.166 0.734-0.433 1.85-0.8 3.35-0.333 1.333-0.566 2.45-0.7 3.35v-7.35c0.134-0.033 0.25-0.133 0.351-0.3l0.45-1c0.199-0.267 0.366-0.483 0.5-0.65 0.166-0.267 0.267-0.5 0.3-0.7v-0.15h-0.051l-0.3 0.15c-0.033-1.3-0.033-2.267 0-2.9 0.334-1.3 0.534-2.267 0.601-2.9 0.033-0.267 0.05-1.45 0.05-3.55-0.033-0.633-0.15-1.45-0.35-2.45-0.067-0.3-0.117-0.566-0.15-0.8 1.134-0.833 1.9-1.7 2.3-2.6 1.134 7.3 1.7 14.467 1.7 21.5 0 7.133-1.033 13.1-3.1 17.899-0.401 0.901-0.785 1.701-1.151 2.401zm-4.05-45.55c2.866-1.1 4.566-2.35 5.1-3.75l0.601 2.95c-0.534 0.733-1.301 1.417-2.301 2.05-0.166-0.3-0.666-0.967-1.5-2 0.034 0.5 0.017 1.283-0.05 2.35v0.55c-0.434 0.167-0.866 0.35-1.3 0.55-0.267-1.233-0.45-2.133-0.55-2.7zm-41.35 0.4l-0.9 2.4c-0.3-0.1-0.567-0.2-0.8-0.3 0.033-0.4 0.117-0.8 0.25-1.2 0.133-0.567 0.233-0.983 0.3-1.25 0.1 0.033 0.216 0.066 0.35 0.1l0.3 0.1c0.167 0.067 0.333 0.117 0.5 0.15zm23.85 5.5c-0.167-1.167-0.334-2.117-0.5-2.85 0.533-0.034 1.083-0.05 1.649-0.05l-0.05 0.8c-0.032 0.733-0.049 1.417-0.049 2.05-0.366 0-0.717 0.017-1.05 0.05zm-18.95-4.2c-0.367 0.566-0.7 1.417-1 2.55-0.033-0.033-0.067-0.05-0.1-0.05l0.6-2.2 0.1-0.35c0.1 0 0.233 0.017 0.4 0.05zm34.5 7.55c0.033 0.4 0.066 0.817 0.1 1.25l0.4 6-0.15-1.55c-0.033-0.367-0.133-0.783-0.3-1.25-0.3-0.767-0.45-1.184-0.45-1.25-0.199-0.767-0.333-1.75-0.399-2.95 0.266-0.1 0.532-0.183 0.799-0.25zm-8.6 42.15c-0.2 0-0.384 0.017-0.551 0.05 0.167-0.399 0.351-0.816 0.551-1.25l0.05-0.199c0.434-0.934 0.75-1.733 0.95-2.4 0.6-1.7 0.983-2.9 1.149-3.6 0.167-0.967 0.316-1.667 0.45-2.101l0.15-0.5-0.051 1 0.25-0.899-0.148 0.849c-0.2 0.9-0.566 2.2-1.101 3.9l-0.8 2.6c-0.266 0.9-0.566 1.75-0.899 2.55zm8.95-2.5c-0.733 0.3-1.466 0.584-2.199 0.851 0.1-0.334 0.199-0.684 0.3-1.051 0.333-1.366 0.6-2.399 0.8-3.1 0.2-0.634 0.366-1.5 0.5-2.6 0.167-1.367 0.283-2.25 0.35-2.65 0.2-0.9 0.351-1.866 0.45-2.9 0.101-1.166 0.167-2.083 0.2-2.75v8.301c-0.033 2.233-0.167 4.149-0.4 5.75v0.149zm2.75-5.45c0.267-1.199 0.434-2.1 0.5-2.699 0.2-1.733 0.317-3.017 0.351-3.851-0.066-1.166-0.05-2.033 0.05-2.6 0.167 0.166 0.283 0.45 0.35 0.85l0.101 1c0.233 2.334 0.2 4.517-0.101 6.55-0.133 0.867-0.5 1.801-1.1 2.801-0.164 0.262-0.247 0.462-0.25 0.6v-1.751l0.099-0.9zm-7.1-14.6l0.05 1 0.05 1.35c0 1.834-0.166 3.634-0.5 5.4-0.1 0.6-0.316 1.467-0.649 2.6l-0.5 1.101v-19.401c0.066 0.6 0.217 1.35 0.45 2.25 0.133 0.5 0.333 1.233 0.6 2.2 0.232 1.033 0.399 2.2 0.499 3.5zm-40.6-28.15c-0.066-0.1-0.15-0.167-0.25-0.2 0.067-0.633 0.083-1.1 0.05-1.4-0.034-0.567-0.034-1.033 0-1.4 0.267 0.233 0.583 0.467 0.95 0.7-0.367 0.8-0.617 1.567-0.75 2.3zm-0.35 9.95l-1.7 5.7c0.1-0.567 0.2-1.167 0.3-1.8 0.434-2.4 0.667-4.4 0.7-6l0.45-1.9c0.2 0.133 0.4 0.267 0.6 0.4-0.1 1.067-0.217 2.267-0.35 3.6zm7 3.2l-0.1-0.1c0.066-1.566 0.15-2.917 0.25-4.05 0.033 0 0.1 0.017 0.2 0.05-0.033 0.267-0.05 0.567-0.05 0.9v0.55c-0.1 0.833-0.2 1.717-0.3 2.65zm-5.55 16.4v-3.25l0.05-0.301 0.3-1.6v0.3c0.033 1.233 0.117 3.101 0.25 5.601 0 1.666 0.017 2.649 0.05 2.949l0.1 1.601v0.4c0 0.101-0.05 0.384-0.15 0.851-0.133 0.399-0.3 0.467-0.5 0.2l-0.1-0.351 0.1-1.55-0.1-4.85zm5.25-4.9c0-1.8 0.067-3.4 0.2-4.8 0.233-0.233 0.483-0.417 0.75-0.55l0.3-0.15v0.5l0.25 3.25c0 1.333-0.1 3.75-0.3 7.25-0.2 3.066-0.267 5.483-0.2 7.25-0.167-0.267-0.3-0.967-0.4-2.1v-7.5c0-0.301-0.083-1.084-0.25-2.351-0.067-0.365-0.183-0.632-0.35-0.799zm3.2 25.15c-0.333-0.067-0.633-0.15-0.9-0.25-0.033-0.101-0.066-0.2-0.1-0.301-0.367-1.433-0.567-2.233-0.6-2.399-0.2-1.2-0.167-1.917 0.1-2.15 0.033 0.4 0.15 0.834 0.35 1.3 0.1 0.267 0.284 0.684 0.55 1.25l0.35 1.15 0.15 0.45v0.35c0.033 0.2 0.067 0.4 0.1 0.6zm-10.65-23.8c-0.033 0.733-0.05 1.467-0.05 2.2l-0.05-2.65c0.033 0.133 0.067 0.284 0.1 0.45zm5.9 0.75v1.4l-0.3-0.6c-0.133-0.334-0.283-1.051-0.45-2.15-0.067-0.634 0.167-1.483 0.7-2.55l0.35-0.7c-0.033 0.333-0.067 0.8-0.1 1.4 0 0.433 0.033 0.816 0.1 1.149-0.267 0.335-0.367 1.017-0.3 2.051zm0.9-2.35h-0.05l0.05-0.15v0.15zm26.3 5.55l-0.7 2.8c-0.167 1.067-0.584 2.551-1.25 4.45h-0.05l-0.101 0.4 0.201-1.05 0.35-1.9v-0.45c0.034-1.633 0.184-4.083 0.45-7.35 0.134-2 0.2-3.517 0.2-4.55 0-0.4-0.083-1.567-0.25-3.5 0.033-0.967 0.033-1.7 0-2.2 0.066 0.633 0.333 1.433 0.8 2.4l0.75 1.6c0.2 0.6 0.3 1.816 0.3 3.649 0 1.867-0.083 3.167-0.25 3.9l-0.45 1.801zm-2.1 7.65l-1.55 7.95c0-0.101 0.15-1.351 0.45-3.75 0.233-1.5 0.517-2.717 0.85-3.65l0.25-0.55zm-0.75 8c0.267-1.267 0.5-2.217 0.7-2.851v0.15c-0.033 1.8-0.033 3.583 0 5.35v3.15c-0.634 0.033-1.283 0.066-1.95 0.1 0.134-0.933 0.384-2.133 0.75-3.6l0.5-2.299zm-25.15 1.85c-0.133-0.733-0.2-1.283-0.2-1.649 0.267 0.666 0.533 1.449 0.8 2.35-0.2-0.066-0.383-0.134-0.55-0.2l-0.05-0.501zm-3.45-1.5c-0.1-0.533-0.133-0.95-0.1-1.25 0.167 0.434 0.4 0.983 0.7 1.65-0.2-0.134-0.4-0.266-0.6-0.4z" fill="#3F2E14"/>
	<linearGradient id="e" x1="1.7373" x2="58.362" y1="15.125" y2="15.125" gradientUnits="userSpaceOnUse">
		<stop stop-color="#D9D9E6" offset="0"/>
		<stop stop-color="#797B85" offset="1"/>
	</linearGradient>
	<path d="m4.65 13.15c0.1 0.033 0.184 0.1 0.25 0.2 0.233 0.133 0.5 0.3 0.8 0.5 0.133 0.067 0.267 0.15 0.4 0.25 0.267 0.133 0.566 0.283 0.9 0.45 0.133 0.067 0.283 0.133 0.45 0.2 0.1 0.033 0.216 0.083 0.35 0.15 0.167 0.067 0.367 0.15 0.6 0.25s0.5 0.2 0.8 0.3 0.6 0.216 0.9 0.35h0.1c0.233 0.067 0.483 0.15 0.75 0.25h0.05c0.1 0.034 0.217 0.083 0.35 0.15 0.267 0.066 0.517 0.133 0.75 0.2h0.05c0.067 0.033 0.133 0.05 0.2 0.05 0.133 0.033 0.267 0.066 0.4 0.1 0.367 0.1 0.733 0.2 1.1 0.3h0.05c0.033 0 0.067 0.017 0.1 0.05 1.467 0.333 3 0.633 4.6 0.9 0.4 0.034 0.816 0.083 1.25 0.15 0.133 0.033 0.283 0.066 0.45 0.1 0.3 0 0.617 0.034 0.95 0.1 0.533 0.033 1.067 0.083 1.6 0.15 0.7 0.067 1.417 0.117 2.15 0.15 0.3 0.033 0.6 0.05 0.9 0.05 0.9 0.033 1.833 0.067 2.8 0.1h1.35c1.033 0 2.05-0.017 3.05-0.05h0.851c0.333-0.033 0.684-0.05 1.05-0.05 0.033-0.033 0.066-0.033 0.1 0 1.2-0.067 2.384-0.15 3.551-0.25 0.199-0.033 0.433-0.067 0.699-0.1 0.167-0.033 0.334-0.05 0.5-0.05 0.367-0.033 0.717-0.067 1.051-0.1 0.933-0.133 1.833-0.267 2.699-0.4 0.034-0.033 0.067-0.05 0.101-0.05 0.366-0.066 0.75-0.133 1.149-0.2 0.601-0.133 1.217-0.267 1.851-0.4 0.166-0.034 0.333-0.067 0.5-0.1 0.166-0.067 0.333-0.117 0.5-0.15h0.149c0.034-0.034 0.067-0.05 0.101-0.05 0.467-0.133 0.916-0.25 1.35-0.35 0.467-0.167 0.9-0.316 1.3-0.45 0.067-0.033 0.15-0.05 0.25-0.05 0.4-0.167 0.784-0.316 1.15-0.45 0.434-0.2 0.866-0.383 1.3-0.55 0.566-0.3 1.084-0.6 1.55-0.9 1-0.633 1.767-1.316 2.301-2.05 0.1-0.133 0.183-0.267 0.25-0.4 0.166 0.3 0.366 0.783 0.6 1.45 0.233 0.7 0.35 1.184 0.35 1.45v0.3c-0.066-0.7-0.383-1.617-0.949-2.75-1.267 2.2-4.45 3.983-9.551 5.35-5.066 1.333-11.083 2-18.05 2-6.9 0-12.917-0.75-18.05-2.25-4.867-1.4-7.967-3.167-9.3-5.3 0.066-0.233 0.133-0.417 0.2-0.55 7e-3 -0.036 0.015-0.069 0.025-0.1 1e-3 -0.021 0.01-0.038 0.022-0.05 0.167 0.3 0.367 0.583 0.6 0.85 0.2 0.267 0.45 0.517 0.75 0.75 0.167 0.167 0.367 0.35 0.6 0.55z" fill="url(#e)"/>
	<path d="m46.95 9.7l-4.15 2.7-0.5 0.1 2.65-1.8 1.55-1.05c0.033-0.033 0.116-0.1 0.25-0.2 1.5-1 2.533-1.65 3.1-1.95 0.434-0.267 0.717-0.367 0.851-0.3l-0.601 0.45-1.2 0.75h-0.05v-0.05c-0.7 0.433-1.333 0.883-1.9 1.35zm-13.1 3.05l-1.1 0.6-1.4 0.05h-1.45l16.55-7.9 0.75-0.4c0.133 0.033 0.267 0.066 0.399 0.1l-3.449 1.9-3.15 1.6-0.25 0.1-1.85 1.2-1.4 0.75-3.65 2zm0.5-8.05l0.85-0.45c1.066-0.467 1.75-0.717 2.05-0.75l2.45 0.25h-0.1l-1.65 0.55c-1.834 0.6-3.25 0.983-4.25 1.15-0.3 0.133-0.584 0.15-0.85 0.05l1.5-0.8zm-5.8-1.5h1.3c1.2 0 2.367 0.017 3.5 0.05 0.601 0.033 1.184 0.067 1.75 0.1h0.601l-0.151 0.05h-0.2c-1.166 0.2-2.35 0.35-3.55 0.45l-0.3 0.05-1.15 0.05c-0.234 0.033-0.567 0.05-1 0.05l-1.95 0.05-1.65 0.9 2.75-1.7 0.05-0.05zm-15.05 3.25c-1.167 0.433-2.183 0.917-3.05 1.45-0.733 0.433-1.283 0.983-1.65 1.65l-0.75 0.25c-0.803-0.482-1.387-0.966-1.75-1.45-0.02-0.016-0.037-0.032-0.05-0.05l0.95-0.95c0.563-0.435 1.313-0.852 2.25-1.25 0.283-0.118 0.583-0.234 0.9-0.35l1.75-0.55c0.3-0.1 0.6-0.184 0.9-0.25 0.233-0.067 0.467-0.117 0.7-0.15 0.1-0.033 0.216-0.066 0.35-0.1h0.05c0.1 0 0.183-0.017 0.25-0.05h0.15l8.25-1.15c0.067-0.033 0.15-0.05 0.25-0.05l1.5-0.1c0.5-0.033 1-0.067 1.5-0.1h0.25l2.25-0.05-1.35 0.85-2.9-0.05h-0.95c-0.1-0.067-0.25-0.05-0.45 0.05l-1.35 0.05 1.5-0.65-1.8 0.65c-1.034 0.066-1.817 0.167-2.35 0.3l-2.1 0.6c-0.833 0.5-1.483 0.85-1.95 1.05l-0.35 0.15-0.95 0.25zm11.25 2.7l1.75-0.95 3.7-2-1.05 0.7c-2.167 1.567-3.867 2.583-5.101 3.05-0.233 0.133-0.566 0.233-1 0.3l-0.3 0.05-0.25-0.05c0.133-0.2 0.55-0.417 1.25-0.65l0.251-0.05 0.75-0.4zm18.4-4.9l1.1 0.2-2.8 1.45 0.8-0.8c0.3-0.333 0.6-0.617 0.9-0.85zm-22.55 3.8l-2.25 1.35-0.1 0.05-4 2.45-0.45-0.1 10.65-6.1-2.15 1.3-1.7 1.05zm-12.05 2l-0.45-0.2 0.65-0.25-0.2 0.45z" fill="#362712"/>
	<path d="m49.25 6.45l-0.75 0.35c-1.767 0.8-3 1.317-3.7 1.55 0.467-0.4 0.717-0.6 0.75-0.6 0.267-0.133 0.566-0.233 0.9-0.3l2.8-1zm-4.6 0.75l-0.15 0.1c-1.366 1.034-3.033 2.034-5 3l-1.6 0.8c-0.834 0.3-1.601 0.683-2.301 1.15-0.166 0.167-0.316 0.25-0.449 0.25 0.133-0.233 0.366-0.433 0.699-0.6l3.051-1.9 1.85-1.2 0.25-0.1 3.15-1.6 2.05-1.05-1.55 1.15zm-8.55 1.9c0.667-0.633 1.483-1.133 2.45-1.5l0.601-0.25c0.267-0.067 0.5-0.167 0.699-0.3l2.775-1.4 2.175-1.1 0.45 0.1h0.15l-3.8 2.4-3.1 1.5c-1.8 0.9-2.8 1.284-3 1.15l0.6-0.6zm-11.4-2.05l3.3-1.4 1.85-0.8c-4.966 2.566-8.167 4.167-9.6 4.8-0.533 0.267-1 0.5-1.4 0.7-0.767 0.333-1.333 0.45-1.7 0.35 0.767-0.633 1.883-1.25 3.35-1.85 1.667-0.7 2.567-1.083 2.7-1.15l1.5-0.65zm-4.45-2.45l-2.95 1.25-2.35 0.95 0.55-0.35 0.9-0.45 6.6-2.55-1.5 0.65-1.25 0.5zm28.6 3.8l0.101 0.7c-0.667 0.367-1.184 0.633-1.55 0.8-0.601 0.3-1.117 0.5-1.551 0.6l1.101-0.8c0.566-0.467 1.2-0.917 1.899-1.35v0.05zm-15.4 0.85l-0.95 0.35c0.1-0.1 0.55-0.517 1.35-1.25l7.101-2.9c-3.301 1.733-5.801 3-7.501 3.8zm-8.5 1.05c0.167-0.233 0.633-0.583 1.4-1.05l5.85-3.3-7.25 4.35zm-11.95-1.05c0-0.033 0.35-0.25 1.05-0.65l1.55-0.8 0.05-0.05 5.2-2.2c-0.8 0.367-2.05 0.95-3.75 1.75l-1.45 0.7c-1.467 0.9-2.35 1.317-2.65 1.25z" fill="#87612E"/>
	<path d="m28.65 15.75h0.05c0.066 0.6 0.066 1.517 0 2.75v0.1c-0.967-0.033-1.9-0.067-2.8-0.1 0-0.5 0.033-0.9 0.1-1.2 0.133-0.7 0.217-1.233 0.25-1.6 0.033-0.034 0.083-0.034 0.15 0l2.25 0.05zm20.45-2.35c0.834-0.267 1.617-0.517 2.351-0.75 0.1 0.567 0.283 1.467 0.55 2.7-0.366 0.133-0.75 0.283-1.15 0.45l-0.25-0.75v0.8c-0.399 0.133-0.833 0.283-1.3 0.45 0.033-0.8 0.017-1.433-0.05-1.9-0.034-0.333-0.084-0.667-0.151-1zm-1.9 1.45c0.233 0.533 0.45 1.15 0.649 1.85h-0.149l-0.5-1.85zm-0.5 2.1l0.3-2.45c0 0.6 0.066 1.383 0.2 2.35-0.167 0.033-0.334 0.067-0.5 0.1zm-3.75-2.15c0.666-0.1 1.333-0.216 2-0.35 0 1.033-0.033 2-0.101 2.9-0.399 0.066-0.783 0.133-1.149 0.2-0.2-1.167-0.4-1.966-0.601-2.4-0.033-0.133-0.082-0.25-0.149-0.35zm-3.2 1.25l-0.4 2.1c-0.267 0.033-0.5 0.067-0.699 0.1-0.034-0.333-0.067-0.683-0.101-1.05-0.033-0.7-0.1-1.3-0.2-1.8 0.534-0.066 1.051-0.117 1.551-0.15l-0.051 0.35-0.1 0.3v0.15zm-4.5 1.1l-0.15 0.45v-1l0.15 0.55zm-0.25 1.35l0.1-0.9v0.9c-0.034-0.033-0.067-0.033-0.1 0zm-2-2.25l-0.1-0.5c0.166-0.033 0.35-0.05 0.55-0.05 0.166 0.733 0.333 1.683 0.5 2.85h-0.601v-0.05c-0.033-0.5-0.149-1.25-0.349-2.25zm-12.85-1.05c-0.133 0.833-0.233 1.75-0.3 2.75-0.434-0.067-0.85-0.117-1.25-0.15 0.033-1.066 0.167-1.983 0.4-2.75 0.367 0.067 0.75 0.117 1.15 0.15zm27.45 18.4l-0.1 0.95c-0.066 0.733-0.134 1.867-0.2 3.4-0.033 0.2-0.267 1.1-0.7 2.7-0.166 0.699-0.267 1.083-0.3 1.149-0.2 0.566-0.45 0.8-0.75 0.7l-0.05-1c0.233-1 0.366-1.6 0.4-1.8 0.033-0.167 0.183-1.283 0.449-3.351 0.301-1.6 0.467-2.8 0.5-3.6 0.2-1.867 0.284-3.283 0.25-4.25 0-1.733-0.133-3.667-0.399-5.8 0.467-0.133 0.95-0.267 1.45-0.4 0.166 1.333 0.233 2.434 0.199 3.3-0.033 1.233-0.166 3.066-0.399 5.5-0.033 0.535-0.15 1.369-0.35 2.502zm-4.9 9.7l-0.7 8.85-0.15-0.101c-0.666-0.267-1.083-0.767-1.25-1.5-0.166-0.8-0.133-1.833 0.101-3.1 0.333-1.4 0.55-2.417 0.649-3.05 0.567-3.467 0.851-5.317 0.851-5.551 0.066-0.767 0.066-1.533 0-2.3 0.1-1.566 0.149-2.75 0.149-3.55-0.1-3.4-0.133-5.967-0.1-7.7 0 0.333 0.116 0.8 0.35 1.4 0.101 0.433 0.267 1.083 0.5 1.95 0.2 0.733 0.317 1.367 0.351 1.9 0.133 1.733 0.116 3.733-0.05 6-0.101 1.066-0.317 3.05-0.65 5.95l-0.051 0.802zm7.3-6.7l-0.05 0.1 0.05-3.7c0-1.033-0.05-2.083-0.15-3.15l-0.149-1.1c-0.134-0.6-0.3-0.933-0.5-1-0.134 0.2-0.267 0.65-0.4 1.35-0.166 0.6-0.366 1.017-0.6 1.25l0.149-3.05c0.134-0.9 0.217-1.583 0.25-2.05 0.034-0.6 0.017-1.333-0.05-2.2-0.033-0.333-0.05-0.617-0.05-0.85 0.066-0.034 0.134-0.05 0.2-0.05 0.066 1.2 0.2 2.184 0.399 2.95 0 0.066 0.15 0.483 0.45 1.25 0.167 0.467 0.267 0.883 0.3 1.25l0.151 1.55-0.4-6c-0.033-0.433-0.066-0.85-0.1-1.25 0.167-0.066 0.333-0.133 0.5-0.2 0.267-0.1 0.517-0.184 0.75-0.25 0.033 0.667 0.066 1.383 0.1 2.15 0.034 0.967 0.067 2.417 0.101 4.35 0 1.7-0.084 3.15-0.25 4.35-0.101 0.767-0.3 1.934-0.601 3.5l-0.1 0.8zm5.9-5.15l0.05 0.15c-0.033 0.2-0.134 0.433-0.3 0.7-0.134 0.167-0.301 0.383-0.5 0.65l-0.25 0.5c-0.101-2.233-0.267-4.217-0.5-5.95-0.4-2.367-0.667-4.133-0.801-5.3 0 0.767 0.067 2.017 0.2 3.75 0.134 1.633 0.2 2.9 0.2 3.8 0 0.6 0.017 1.517 0.05 2.75 0 1.133-0.1 2.05-0.3 2.75v-1.25c-0.2-2.167-0.283-3.8-0.25-4.9 0.033-0.434 0.05-0.783 0.05-1.05 0.033-0.5-0.017-0.85-0.149-1.05-0.167-0.067-0.267-0.15-0.301-0.25-0.166-0.267-0.333-0.8-0.5-1.6-0.366-0.767-0.616-1.35-0.75-1.75v-1c0-0.4-0.017-0.85-0.05-1.35 1.601-0.633 2.917-1.316 3.95-2.05 0.033 0.233 0.083 0.5 0.15 0.8 0.199 1 0.316 1.817 0.35 2.45 0 2.1-0.017 3.283-0.05 3.55-0.066 0.633-0.267 1.6-0.601 2.9-0.033 0.633-0.033 1.6 0 2.9l0.302-0.15zm-1.05-17.55c-0.466 0.3-0.983 0.6-1.55 0.9v-0.55c0.066-1.067 0.084-1.85 0.05-2.35 0.834 1.033 1.334 1.7 1.5 2zm-13.05 47.6l0.8-2.6c0.534-1.7 0.9-3 1.101-3.9l0.149-0.85 0.2-0.65-1.2 6.2c-0.234 0.6-0.583 1.2-1.05 1.8zm5.85 0.9c-0.801 0.233-1.617 0.466-2.45 0.699 0.434-0.933 0.833-1.916 1.2-2.949 0.366-1.467 0.699-2.534 1-3.2v-0.05c0.066-0.834 0.267-1.534 0.6-2.101 0.5-0.833 0.866-1.833 1.1-3 0.101-0.399 0.267-1.467 0.5-3.2 0.167-1.267 0.25-2.416 0.25-3.449-0.033-0.767-0.066-1.351-0.1-1.75-0.033-0.733 0.017-1.317 0.15-1.75 0.133 0.633 0.183 1.449 0.149 2.449 0 0.567-0.033 1.4-0.1 2.5l0.1 3.5c-0.1 1.034-0.25 2-0.45 2.9-0.066 0.4-0.183 1.283-0.35 2.65-0.134 1.1-0.3 1.966-0.5 2.6-0.2 0.7-0.467 1.733-0.8 3.1-0.099 0.368-0.199 0.717-0.299 1.051zm2.2-0.85v-0.15c0.434-0.534 0.75-1.017 0.95-1.45l0.3-0.601c-0.359 0.853-0.676 1.553-0.949 2.101-0.101 0.033-0.201 0.067-0.301 0.1zm6.55-27.95l0.05-0.1c0.2-0.433 0.366-1 0.5-1.7 0.1-0.767 0.184-1.333 0.25-1.7l0.3 11.5c0 0.534 0.017 1.334 0.05 2.4 0.033 0.967-0.05 1.767-0.25 2.4-0.4 1.4-0.85 3.6-1.35 6.6-0.101 0.533-0.367 1.184-0.8 1.95-0.467 0.899-0.767 1.55-0.9 1.95l0.95-3.4c0.767-2.767 1.217-4.566 1.35-5.4l0.55-3.3c0.101-0.633 0.15-1.95 0.15-3.95 0-1.633-0.1-3.017-0.3-4.149l-0.55-3.101zm-4.8 24.7l-0.25 0.45c0.367-0.934 0.667-2.134 0.9-3.6l0.05-1c0.3-1 0.467-1.934 0.5-2.801 0.066-1.366 0.017-2.733-0.149-4.1l0.05-0.95c-0.066-1.566-0.066-2.733 0-3.5 0.066-0.467 0.366-1.1 0.899-1.899l0.75-1.351v2.05c0.134-0.899 0.367-2.017 0.7-3.35 0.367-1.5 0.634-2.616 0.8-3.35l0.25-0.6v0.65l-0.3 3.2c-0.2 2.633-0.483 4.466-0.85 5.5-0.2 0.699-0.417 1.25-0.65 1.649-0.066 0.167-0.217 0.4-0.45 0.7v1.8c-0.066-0.399-0.183-0.684-0.35-0.85-0.1 0.566-0.116 1.434-0.05 2.6-0.033 0.834-0.15 2.117-0.351 3.851-0.066 0.6-0.233 1.5-0.5 2.699l-1 2.15v0.052zm-10.65 4.35l-0.05 0.05v0.149c-0.2 0.434-0.384 0.851-0.551 1.25-0.133 0.034-0.267 0.067-0.399 0.101 0.267-0.5 0.583-1 0.95-1.5 0.767-2.867 1.35-5.033 1.75-6.5 0.533-2.167 0.883-4.066 1.05-5.7l0.25-1.25v3.7l-0.3 1.1-0.15 0.5c-0.134 0.434-0.283 1.134-0.45 2.101-0.166 0.699-0.55 1.899-1.149 3.6-0.201 0.666-0.517 1.466-0.951 2.399zm-14.95-38.15c0.967 0.033 1.967 0.05 3 0.05-0.033 1.534 0.05 3.8 0.25 6.8 0 1.533-0.05 3.017-0.15 4.45-0.2 1.934-0.533 3.45-1 4.55-0.167 0.467-0.333 1.051-0.5 1.75-0.1 0.367-0.233 0.95-0.4 1.75-0.567 2-0.883 3.601-0.95 4.801l0.1-12.101c0.066-1.467 0.316-2.683 0.75-3.65 0.2-0.5 0.283-1.066 0.25-1.7-0.033-0.4-0.25-1.217-0.65-2.45l-0.25-0.8c-0.167-0.167-0.35-0.217-0.55-0.15l-0.6 0.2c-0.533 0.067-0.983-0.233-1.35-0.9-0.333-0.533-0.483-1.05-0.45-1.55 0 0.233 0.05 0.417 0.15 0.55 0.067 0.133 0.267 0.3 0.6 0.5 0.467 0.3 0.833 0.383 1.1 0.25 0.367-0.133 0.583-0.434 0.65-0.9v-1.45zm9.55-0.15c0.066 0.467 0.134 0.933 0.2 1.4 0.3 1.967 0.566 4.167 0.8 6.6-0.467-0.967-0.733-1.767-0.8-2.4 0.033 0.5 0.033 1.233 0 2.2 0.167 1.934 0.25 3.1 0.25 3.5 0 1.033-0.066 2.55-0.2 4.55-0.399-3.233-0.6-5.667-0.6-7.3 0-0.233-0.084-0.983-0.25-2.25-0.066-0.833-0.084-1.917-0.05-3.25 0.033-1.3 0.05-2.3 0.05-3 0.2-0.033 0.4-0.05 0.6-0.05zm-1.65 0.1c0.3 0 0.6-0.017 0.899-0.05l0.05 2.7c0 0.333-0.033 1.1-0.1 2.3-0.033 0.967-0.033 1.75 0 2.35-0.166-0.133-0.249-0.75-0.249-1.85-0.1-1.667-0.217-2.917-0.35-3.75-0.1-0.5-0.183-1.067-0.25-1.7zm-14.4-0.5c-0.033 0.966-0.05 1.983-0.05 3.05 0.1 1.3 0.083 2.1-0.05 2.4-0.167-1.267-0.333-3.117-0.5-5.55 0.2 0.033 0.4 0.067 0.6 0.1zm-13.5 18.95v1.25l-0.25-1 0.25-3.1v2.85zm0.35-6.15v1l-0.3 1.6 0.3-3.949v1.349zm6.15-3.75l1.1-2c0 0.7 0.033 1.75 0.1 3.15 0 1.267-0.067 2.3-0.2 3.1-0.133 0.667-0.267 1.733-0.4 3.2l-0.05 4.7-0.05 2.05-0.05 2.7-0.1 4.55c0 0.8 0.083 1.733 0.25 2.8 0.133 0.733 0.383 1.816 0.75 3.25l0.2 0.7-0.2-0.601c-0.267-0.566-0.45-0.983-0.55-1.25-0.2-0.466-0.316-0.899-0.35-1.3-0.267 0.233-0.3 0.95-0.1 2.15 0.033 0.166 0.233 0.967 0.6 2.399 0.033 0.101 0.066 0.2 0.1 0.301-0.533-0.167-1.05-0.317-1.55-0.45-0.033-0.434-0.05-0.967-0.05-1.601 0-0.933-0.017-1.6-0.05-2-0.367-2.933-0.55-4.583-0.55-4.949l-0.1-3.95c-0.067-1.934-0.15-3.4-0.25-4.4-0.033-1.767-0.067-3.083-0.1-3.95-0.033-0.466-0.066-1.1-0.1-1.899 0.067 0.333 0.167 0.666 0.3 1 0.133-0.134 0.2-0.533 0.2-1.2-0.033-0.667-0.05-1.066-0.05-1.2v-0.3c0.167 0.167 0.283 0.434 0.35 0.8 0.167 1.267 0.25 2.05 0.25 2.351v7.5c0.1 1.133 0.233 1.833 0.4 2.1-0.067-1.767 0-4.184 0.2-7.25 0.2-3.5 0.3-5.917 0.3-7.25l-0.25-3.251zm3.7 2.2c0.433-1.233 0.617-2.25 0.55-3.05v-5.75c0.133 3.367 0.2 5.167 0.2 5.4 0.033 2.067-0.117 3.867-0.45 5.4-0.433 2.233-0.683 3.75-0.75 4.55v0.8c-0.033 0.334-0.083 0.601-0.15 0.8-0.1-2.267-0.15-3.966-0.15-5.1 0-0.634 0.25-1.65 0.75-3.05zm-10.2 14.1l0.1 0.351c0.2 0.267 0.367 0.199 0.5-0.2 0.1-0.467 0.15-0.75 0.15-0.851v-0.3l0.25 1.9-0.1 3.6c-0.033 0.533-0.133 0.917-0.3 1.15-0.6-1-1.017-1.733-1.25-2.2-0.033-0.066-0.233-0.85-0.6-2.35-0.229-0.722-0.346-1.464-0.35-2.226 8e-3 0.26 0.091 0.484 0.25 0.675 0.434 0.834 0.833 1.067 1.2 0.7 0.1-0.099 0.15-0.183 0.15-0.249zm8.85 2.75c0.033-0.633 0.15-1.583 0.35-2.85-0.067 1.333-0.05 2.5 0.05 3.5 0 0.066 0.067 0.467 0.2 1.2 0.066 0.5 0.066 0.899 0 1.199-0.167-0.133-0.3-0.383-0.4-0.75l-0.2-2.299zm8.35 12.55c-0.7-0.066-1.383-0.133-2.05-0.199-0.066-0.5-0.1-1.034-0.1-1.601 0.034-1.3 0.05-2.267 0.05-2.899v-5.051c0-1.433-0.167-2.449-0.5-3.05-0.367-0.434-0.667-0.8-0.9-1.1-0.367-0.533-0.483-0.983-0.35-1.351 0.066-0.1 0.2-0.233 0.4-0.399 0.2-0.134 0.333-0.267 0.4-0.4 0.133-0.3 0.2-0.85 0.2-1.649 0.066-1.4 0.183-2.717 0.35-3.95 0.267-1.5 0.483-3.283 0.65-5.351 0 0.767 0.083 4.101 0.25 10 0.033 0.9 0.066 2.217 0.1 3.95 0.267 2.033 0.4 3.95 0.4 5.75v2.851c0.1 1.267 0.45 2.733 1.05 4.399l0.05 0.05zm-7.7-17.1l-0.3 1.7c0-0.033 0.05-1.3 0.15-3.8l0.15 2.1zm15.75 17.4l0.2-0.95c0.366-1.834 0.566-2.867 0.6-3.101l0.8-4.5c0.101-0.533 0.184-1.3 0.25-2.3 0.267-1.033 0.434-1.833 0.5-2.399 0.101-0.967 0.184-2.434 0.25-4.4 0.067-1.967 0.134-3.45 0.2-4.45 0.19-1.71 0.29-3.06 0.3-4.05 0.013 0.783 0.113 1.8 0.301 3.05 0.233 1.533 0.35 2.684 0.35 3.45-0.033 1.033-0.033 2.583 0 4.65l-0.2 1.05 0.101-0.4v0.05l0.05-0.05c0.666-1.899 1.083-3.383 1.25-4.45l0.7-2.8c-0.034 0.8-0.134 1.617-0.301 2.45-0.133 0.833-0.399 2.05-0.8 3.65-0.066 0.5-0.166 1.267-0.3 2.3-0.2 0.934-0.434 2.35-0.7 4.25l-0.05 0.3v-0.15c-0.2 0.634-0.434 1.584-0.7 2.851l0.65-6.25v-0.25c-0.101 0.899-0.25 2.267-0.45 4.1-0.1 0.967-0.25 1.917-0.45 2.851l-0.75 2.8c-0.133 0.7-0.267 1.583-0.399 2.649-0.468-1e-3 -0.935 0.015-1.402 0.049zm3.55-13.95l-0.25 0.55c-0.333 0.934-0.616 2.15-0.85 3.65-0.3 2.399-0.45 3.649-0.45 3.75l1.55-7.95zm-5.35 12.7l-1 1.149c0.087 0.059 0.254 0.092 0.5 0.101-0.536-3e-3 -1.069-0.02-1.6-0.051 0.133-0.633 0.25-1.416 0.35-2.35 0.566-3.333 1.017-5.833 1.35-7.5 0.134-0.7 0.3-1.75 0.5-3.15 0.134-1.399 0.283-2.449 0.45-3.149 0 0.934 0.033 2.416 0.1 4.45 0.101 1.899 0.134 3.366 0.101 4.399-0.034 1.767-0.284 3.801-0.751 6.101zm-10.95 0.35c-0.2-0.033-0.4-0.066-0.6-0.1-0.033-0.101-0.05-0.2-0.05-0.301-0.167-1.1-0.25-2.733-0.25-4.899 0.033 0.967 0.167 1.983 0.4 3.05 0.167 0.9 0.333 1.65 0.5 2.25z" fill="#523D1B"/>
	<path d="m50.85 15.8c-0.1 0-0.183 0.017-0.25 0.05v-0.8l0.25 0.75zm-4.15 1.15c-0.634 0.133-1.25 0.267-1.851 0.4 0.067-0.9 0.101-1.867 0.101-2.9 0.633-0.133 1.267-0.284 1.899-0.45l0.351 0.85 0.5 1.85c-0.167 0.033-0.334 0.083-0.5 0.15-0.134-0.967-0.2-1.75-0.2-2.35l-0.3 2.45zm-3.6-1.8c0.2 0.434 0.4 1.233 0.601 2.4-0.033 0-0.066 0.017-0.101 0.05-0.033-0.167-0.05-0.3-0.05-0.4-0.1-0.833-0.25-1.517-0.45-2.05zm-3.75 3l0.4-2.1c0.033 0.7 0.066 1.383 0.1 2.05-0.166 0-0.333 0.017-0.5 0.05zm-6.25 0.4v-0.1l-0.1-2.2c0.2 1 0.316 1.75 0.35 2.25v0.05h-0.25zm-20.35-2c0.233-0.8 0.4-1.433 0.5-1.9 0.033-0.233 0.083-0.45 0.15-0.65 0.367 0.1 0.767 0.2 1.2 0.3l-0.1 0.35-0.2 0.4-0.45 1.8c-0.367-0.1-0.733-0.2-1.1-0.3zm-1.75-0.5c0.067-0.267 0.1-0.417 0.1-0.45l0.25-2.1h0.05c0.3 0.067 0.6 0.15 0.9 0.25-0.1 0.433-0.25 0.883-0.45 1.35-0.167 0.433-0.333 0.8-0.5 1.1-0.133-0.067-0.25-0.117-0.35-0.15zm-0.9-3c0.233 0.1 0.483 0.184 0.75 0.25-0.167 0.833-0.417 1.65-0.75 2.45v0.05c-0.3-0.133-0.6-0.25-0.9-0.35l0.9-2.4zm34.6 10.1l-0.55 2.5c0 0.3-0.084 0.517-0.25 0.65-0.067-0.333-0.101-0.8-0.101-1.4 0.033-0.667 0.05-1.15 0.05-1.45v-0.1c0.267-0.067 0.551-0.133 0.851-0.2zm5 5.6c-0.334 3.133-0.65 5.45-0.95 6.95-0.2 1.133-0.467 2.149-0.8 3.05l-0.3-0.6-0.05 0.15v-4.7c0.2-1.133 0.317-1.967 0.351-2.5 0.233-2.434 0.366-4.267 0.399-5.5 0.034-0.867-0.033-1.967-0.199-3.3 0.1-0.033 0.216-0.066 0.35-0.1 0 0.233 0.017 0.517 0.05 0.85 0.066 0.867 0.084 1.6 0.05 2.2-0.033 0.467-0.116 1.15-0.25 2.05l-0.151 3.05c0.233-0.233 0.434-0.65 0.6-1.25 0.134-0.7 0.267-1.15 0.4-1.35 0.2 0.067 0.366 0.4 0.5 1zm2.1-7.7c0.033 0.5 0.05 0.95 0.05 1.35v1c0.134 0.4 0.384 0.983 0.75 1.75 0.167 0.8 0.334 1.333 0.5 1.6 0.034 0.1 0.134 0.183 0.301 0.25 0.133 0.2 0.183 0.55 0.149 1.05 0 0.267-0.017 0.617-0.05 1.05-0.033 1.1 0.05 2.733 0.25 4.9v1.25c0.2-0.7 0.3-1.617 0.3-2.75-0.033-1.233-0.05-2.15-0.05-2.75 0-0.9-0.066-2.167-0.2-3.8-0.133-1.733-0.2-2.983-0.2-3.75 0.134 1.167 0.4 2.933 0.801 5.3 0.233 1.733 0.399 3.717 0.5 5.95l-0.2 0.5c-0.101 0.167-0.217 0.267-0.351 0.3v5.3l-0.75 1.35c-0.533 0.8-0.833 1.433-0.899 1.899-0.066 0.767-0.066 1.934 0 3.5l-0.05 0.95c-0.034-0.267-0.184-1.566-0.45-3.9 0-0.866-0.15-1.55-0.45-2.05-0.134 0.3-0.2 0.733-0.2 1.3 0 0.301 0.017 0.717 0.05 1.25v5.95c0 1.434 0.051 2.517 0.15 3.25l-0.651 4.601 1.2-3.5-0.05 1c-0.233 1.466-0.533 2.666-0.9 3.6l-0.15 0.35 0.399-0.8v-0.05l1-2.15-0.099 0.9v1.75c3e-3 -0.138 0.086-0.338 0.25-0.6 0.6-1 0.967-1.934 1.1-2.801 0.301-2.033 0.334-4.216 0.101-6.55l-0.101-1v-1.799c0.233-0.3 0.384-0.533 0.45-0.7 0.233-0.399 0.45-0.95 0.65-1.649 0.366-1.034 0.649-2.867 0.85-5.5l0.3-3.2v-0.651l0.301-0.7 0.55 3.1c0.2 1.133 0.3 2.517 0.3 4.149 0 2-0.05 3.317-0.15 3.95l-0.55 3.3c-0.133 0.834-0.583 2.634-1.35 5.4l-0.95 3.4v0.149c-0.066 0.2-0.116 0.384-0.15 0.55-0.267 0.8-0.533 1.509-0.8 2.125-0.017 0.024-0.033 0.05-0.05 0.075l-0.05 0.15c-0.733 0.399-1.584 0.816-2.55 1.25-0.167 0.066-0.334 0.149-0.5 0.25 0.273-0.548 0.59-1.248 0.949-2.101l-0.3 0.601c-0.2 0.434-0.517 0.916-0.95 1.45 0.233-1.601 0.367-3.517 0.4-5.75v-8.298c-0.033 0.667-0.1 1.584-0.2 2.75l-0.1-3.5c0.066-1.1 0.1-1.933 0.1-2.5 0.033-1-0.017-1.816-0.149-2.449-0.134 0.433-0.184 1.017-0.15 1.75 0.033 0.399 0.066 0.983 0.1 1.75 0 1.033-0.083 2.183-0.25 3.449-0.233 1.733-0.399 2.801-0.5 3.2-0.233 1.167-0.6 2.167-1.1 3-0.333 0.566-0.533 1.267-0.6 2.101v0.05c-0.301 0.666-0.634 1.733-1 3.2-0.367 1.033-0.767 2.017-1.2 2.949-1.367 0.367-2.8 0.684-4.3 0.95 0.333-0.8 0.633-1.649 0.899-2.55 0.467-0.6 0.816-1.2 1.05-1.8l0.15-0.7-0.05 0.6c0.399-1.633 0.967-3.149 1.7-4.55 0.199-0.366 0.783-1.3 1.75-2.8 0.767-1.134 1.25-2.1 1.449-2.9 0.967-3.466 1.5-5.449 1.601-5.949 0.366-1.701 0.55-3.568 0.55-5.601v-1.2l0.1-0.8c0.301-1.566 0.5-2.733 0.601-3.5 0.166-1.2 0.25-2.65 0.25-4.35-0.033-1.934-0.066-3.383-0.101-4.35-0.033-0.767-0.066-1.483-0.1-2.15 0.333-0.133 0.684-0.267 1.05-0.4zm-11.8 2.9c0.167-0.034 0.35-0.067 0.55-0.1l0.05 0.5v2.7c-0.067-0.833-0.267-1.867-0.6-3.1zm3.95 25.3l-0.25 1.25c-0.167 1.634-0.517 3.533-1.05 5.7-0.4 1.467-0.983 3.633-1.75 6.5-0.367 0.5-0.684 1-0.95 1.5-1.267 0.166-2.566 0.316-3.9 0.45 0.5-0.934 1.334-2.101 2.5-3.5 0.233-0.301 0.634-0.884 1.2-1.75 0.5-0.733 0.934-1.301 1.3-1.7 0.334-0.4 0.55-0.75 0.65-1.05 0.033-0.167 0.066-0.567 0.1-1.2 0.033-0.367 0.05-1.5 0.05-3.4l0.15 0.1 0.7-8.851c0.133-1.333 0.434-3.217 0.899-5.649 0.067-1.101 0.184-1.767 0.351-2v13.6zm-8.15-9.05c-0.267 3.267-0.416 5.717-0.45 7.35l-0.35 2.35c-0.033-2.067-0.033-3.617 0-4.65 0-0.767-0.116-1.917-0.35-3.45-0.188-1.25-0.288-2.267-0.301-3.05-0.01 0.99-0.109 2.34-0.3 4.05-0.066 1-0.133 2.483-0.2 4.45-0.066 1.967-0.149 3.434-0.25 4.4-0.066 0.566-0.233 1.366-0.5 2.399-0.066 1-0.149 1.767-0.25 2.3l-0.8 4.5c-0.033 0.233-0.233 1.267-0.6 3.101 0.066-1.967 0.149-3.434 0.25-4.4 0.066-0.7 0.217-1.649 0.45-2.85 0.267-1.334 0.433-2.283 0.5-2.851 0.466-3.966 0.716-6.166 0.75-6.6 0.233-2.467 0.35-4.667 0.35-6.6 0-4.834-0.033-8.45-0.1-10.851-0.067-2.033-0.134-3.8-0.2-5.3 0.133-0.033 0.283-0.05 0.45-0.05 0.066 0.633 0.149 1.2 0.25 1.7 0.133 0.833 0.25 2.083 0.35 3.75 0 1.1 0.083 1.717 0.25 1.85-0.033-0.6-0.033-1.383 0-2.35 0.066-1.2 0.1-1.967 0.1-2.3l-0.05-2.7h0.15c0 0.7-0.017 1.7-0.05 3-0.034 1.333-0.017 2.417 0.05 3.25 0.166 1.267 0.25 2.017 0.25 2.25 1e-3 1.635 0.201 4.069 0.601 7.302zm4.15-24.95l-0.1 0.35 0.051-0.35h0.049zm-35.25-4.9c-0.034 0.367-0.034 0.833 0 1.4 0.033 0.3 0.017 0.767-0.05 1.4-0.233-0.2-0.433-0.383-0.6-0.55 0.034-0.967 0.167-1.8 0.4-2.5l0.25 0.25zm-0.4 8.95l-0.45 1.9v-0.1c0-0.233 0.083-0.85 0.25-1.85v-0.05c0.067 0.033 0.133 0.067 0.2 0.1zm-0.25 9.45c0.333-1.133 0.55-2 0.65-2.6l1.1-6-1.45 4.75 0.1-0.65c0.033-0.333 0.066-0.65 0.1-0.95 0.133-1.333 0.25-2.533 0.35-3.6 0.267 0.133 0.567 0.283 0.9 0.45 0.067 0.033 0.15 0.083 0.25 0.15l-0.1 0.45c-0.133 0.567-0.283 1.45-0.45 2.65-0.3 1.3-0.8 3.233-1.5 5.8l0.05-0.45zm3.45-7.8c0.1 0.033 0.2 0.066 0.3 0.1l-0.35 1c0-0.4 0.017-0.767 0.05-1.1zm-1.15 13.6v0.851l-0.3 3.949-0.05 0.3v0.399l-0.25 3.101 0.25 1v1.65c-0.167-0.733-0.25-1.399-0.25-2-0.033-0.467-0.05-0.883-0.05-1.25l0.15-4.55v-0.225l-0.1 0.825c-0.033 0.233-0.05 0.65-0.05 1.25-0.3-0.3-0.567-0.716-0.8-1.25-0.167-0.366-0.35-0.916-0.55-1.649l0.4-4.4c0-0.833 0.017-1.6 0.05-2.3 0.034-1.367 0.083-2.467 0.15-3.3 0.167-1.334 0.483-2.951 0.95-4.851 0.167-0.567 0.317-1.133 0.45-1.7 0.267 0.167 0.583 0.317 0.95 0.45-0.033 0.033-0.05 0.066-0.05 0.1 0.033 0.267 0.067 0.55 0.1 0.85 0 0.133 0.017 0.3 0.05 0.5l-1.1 3.4v0.05l-0.55 1.6v10l0.2-0.899c0.033-0.567 0.117-1.051 0.25-1.451l0.15-0.45zm5.1-12.25l-0.2 1.3c-0.067 0.033-0.117 0.117-0.15 0.25-0.1 0.133-0.184 0.383-0.25 0.75l-0.25 1.6c-0.1 0.5-0.167 0.95-0.2 1.35 0-0.3 0.017-0.583 0.05-0.85 0.033-0.833 0.083-1.483 0.15-1.95 0.1-0.867 0.267-1.5 0.5-1.9l0.15-0.6c0.067 0 0.133 0.017 0.2 0.05zm-4.35 5.45c0.133-0.933 0.267-1.867 0.4-2.8v0.6c0.033 0.2 0.083 0.383 0.15 0.55-0.1 0.7-0.15 1.1-0.15 1.2v0.05l-0.4 0.4zm8.25 4.25v0.05c0 1.5-0.117 2.617-0.35 3.351l-0.6 1.8-0.05-0.65c-0.333 0.7-0.55 1.483-0.65 2.351l-0.1 0.35c0 0.134-0.017 0.384-0.05 0.75-0.066 0.3-0.183 0.5-0.35 0.6l-0.1-0.149c0.133-1.467 0.267-2.533 0.4-3.2 0.133-0.8 0.2-1.833 0.2-3.1-0.067-1.4-0.1-2.45-0.1-3.15l-1.1 2v-0.5l-0.3 0.15c-0.267 0.133-0.517 0.317-0.75 0.55-0.133 1.4-0.2 3-0.2 4.8v0.3c0 0.134 0.017 0.533 0.05 1.2 0 0.667-0.066 1.066-0.2 1.2-0.133-0.334-0.233-0.667-0.3-1-0.066-0.267-0.1-0.55-0.1-0.851-0.133 0.101-0.3 0.2-0.5 0.301l-0.5 0.947c-0.067-1.033 0.033-1.716 0.3-2.05-0.067-0.333-0.1-0.717-0.1-1.149 0.033-0.601 0.067-1.067 0.1-1.4l-0.35 0.7c-0.533 1.066-0.767 1.916-0.7 2.55 0.167 1.1 0.316 1.816 0.45 2.15l-0.2 0.899c-0.2 1.367-0.233 3.934-0.1 7.7-0.267-0.566-0.45-1-0.55-1.3l-0.05-0.2c0-1.866 0.05-3.7 0.15-5.5 0.067-1.733 0.133-3.033 0.2-3.9 0.133-1.5 0.35-2.767 0.65-3.8l-1.15 2.35c-0.033 0.1-0.05 0.199-0.05 0.3l-0.6 4.4 0.05-3.25v-0.05l1.25-8.45c0.4-0.4 0.8-0.633 1.2-0.7 0-0.2 0.017-0.4 0.05-0.6v0.6c-0.033 0.9-0.033 2.117 0 3.65 0 0.667 0.017 1.284 0.05 1.85-0.033 0.966-0.066 1.75-0.1 2.35l0.55-3.6c0.167-0.9 0.267-1.85 0.3-2.85v-0.3c0.034-0.4 0.05-0.783 0.05-1.15 0.066-1.167 0.133-2.217 0.2-3.15 0.1-1.7 0.184-3 0.25-3.9 0.034 0 0.083 0.017 0.15 0.05-0.1 1.133-0.184 2.483-0.25 4.05 0 0.325-0.017 0.667-0.05 1.025 0.042-0.325 0.092-0.633 0.15-0.925 0.1-0.933 0.2-1.817 0.3-2.65v-0.55c0-0.333 0.017-0.633 0.05-0.9 0.367 0.1 0.733 0.2 1.1 0.3-0.033 0.3-0.067 0.6-0.1 0.9-0.133 1.4-0.183 2.783-0.15 4.15 0 0.267-0.017 0.65-0.05 1.15 0.033 0.167 0.117 0.35 0.25 0.55l0.4 0.4c0.5 0.533 1.117 1.367 1.85 2.5l0.15-0.35zm-7.6-6.85c-0.033-0.4-0.083-0.7-0.15-0.9v-0.05l0.3-1.8c-0.033 0.434-0.05 0.967-0.05 1.6v0.1c-0.033 0.233-0.067 0.5-0.1 0.8v0.25zm4.25 37.3c-0.1-0.033-0.2-0.066-0.3-0.101-0.067-0.233-0.1-0.383-0.1-0.449l-0.5-3.65c-0.233-2.267-0.317-3.717-0.25-4.35l0.4-3.95 0.1 3.95c0 0.366 0.183 2.017 0.55 4.949 0.033 0.4 0.05 1.067 0.05 2 0 0.634 0.017 1.168 0.05 1.601zm2.05-1.25l-0.2-0.7 0.45 0.95 0.05 0.75-0.15-0.45-0.15-0.55zm-1.1-11.3c0.1 1.566 0.15 3.683 0.15 6.35v1c-0.167-1.066-0.25-2-0.25-2.8l0.1-4.55zm0.1-4.75c0 0.233 0.017 0.566 0.05 1 0 0.433-0.033 0.783-0.1 1.05l0.05-2.05zm-9-20.1c-0.133 0.733-0.217 1.383-0.25 1.95l-0.45 1.4v-1.05l0.7-2.3zm-0.35 13.85l0.05 2.649c0-0.733 0.017-1.467 0.05-2.2 0.1 0.233 0.2 0.434 0.3 0.601v4.25c-0.067-0.134-0.117-0.334-0.15-0.601v-0.599c-0.333-1-0.534-1.75-0.6-2.25-0.067-0.566-0.067-1.333 0-2.3 0.033-0.3 0.066-0.584 0.1-0.851 0.033 0.467 0.117 0.901 0.25 1.301zm-2-1.35l-0.1-0.15-0.1-0.2v-0.05l0.2-1.35c0.066-0.533 0.133-0.983 0.2-1.35 0.033-0.1 0.083-0.333 0.15-0.7-0.033 1.333-0.05 3.417-0.05 6.25 0 0.366-0.017 0.917-0.05 1.65 0 0.633 0.033 1.166 0.1 1.6 0.2 0.667 0.3 1.033 0.3 1.1-0.5-0.199-0.75-1.1-0.75-2.699l0.1-4.101zm4.65 0.2v-1c0.033 1.833 0.1 3.283 0.2 4.35 0 0.134 0.05 0.834 0.15 2.101 0.033 0.8 0.117 1.483 0.25 2.05 0.566 2.6 0.733 4.566 0.5 5.9-0.167-0.734-0.317-1.267-0.45-1.601l-0.1-0.3-0.15-1.05-0.1-1.6c-0.033-0.3-0.05-1.284-0.05-2.95-0.133-2.5-0.217-4.367-0.25-5.601v-0.299zm4.25 0v-0.15l-0.05 0.15h0.05zm-5.15 21.55c-0.067-0.066-0.133-0.116-0.2-0.149-0.1-0.4-0.15-0.817-0.15-1.25v-2.15c-0.033-0.4-0.05-0.7-0.05-0.9 0-0.399 0.05-0.716 0.15-0.949 0.066 0.3 0.083 0.767 0.05 1.399-0.033 0.601 0 1.066 0.1 1.4 0.3 1.166 0.583 2.083 0.85 2.75 0.066 0.133 0.15 0.3 0.25 0.5-0.133-0.101-0.267-0.184-0.4-0.25-0.3-0.667-0.533-1.217-0.7-1.65-0.033 0.299 0 0.716 0.1 1.249zm3.5 2c-0.034-0.033-0.083-0.066-0.15-0.1-0.333-0.167-0.667-0.334-1-0.5-0.133-0.533-0.233-0.934-0.3-1.2-0.167-0.634-0.25-1.167-0.25-1.6l-0.05-3.4c0.066 1.767 0.333 3.2 0.8 4.3l0.9 2 0.05 0.5z" fill="#5B431E"/>
	<path d="m3 18.3c-0.167 0.833-0.35 1.733-0.55 2.7l-1 4.65c-0.2 1-0.317 1.783-0.35 2.35-0.033 0.433-0.167 1.05-0.4 1.85l0.05 2.35h-0.1v0.6c-0.267 0.667-0.467 1.434-0.6 2.3l0.7 1c-0.1 1.801 0.083 2.884 0.55 3.25-0.066 0.367-0.1 0.767-0.1 1.2v1.8c0.033 0.467 0.15 1.15 0.35 2.051 0 0.5 0.083 0.899 0.25 1.199 0.133 0.367 0.233 0.567 0.3 0.601 0.267 0.133 0.4 0.05 0.4-0.25-0.033-0.3-0.05-0.5-0.05-0.601 0.033 0.2 0.1 0.45 0.2 0.75l0.05 1.3c0 0.1 0.017 0.35 0.05 0.75-0.033 0.066-0.1 0.116-0.2 0.149-0.133 0.033-0.216 0.084-0.25 0.15-0.1 0.166-0.083 0.783 0.05 1.85 0.033 0.167 0.133 0.517 0.3 1.05 0.1 0.301 0.167 0.567 0.2 0.801 0.033-0.9 0.133-1.434 0.3-1.601 0.233 0.566 0.434 1.384 0.6 2.45 0.2 1.2 0.367 2.017 0.5 2.45 0.167 0.566 0.267 1.434 0.3 2.6-0.133 0-0.3-0.066-0.5-0.2-0.065-0.131-0.132-0.264-0.2-0.399-0.867-1.634-1.567-3.434-2.1-5.4l-1.75-13.8v-3.25l0.05 0.05c0-1 0.034-2 0.1-3h-0.05c0-0.4 0.017-0.783 0.05-1.15 0.267-4.867 0.767-9.633 1.5-14.3 0.067 0.133 0.133 0.267 0.2 0.4-0.067 0.5-0.117 1.233-0.15 2.2 0-0.1 0.15-0.583 0.45-1.45 0.033-0.067 0.067-0.133 0.1-0.2 0.2 0.233 0.45 0.483 0.75 0.75zm0.3-6.45c-0.233-0.267-0.433-0.55-0.6-0.85-0.012 0.012-0.021 0.029-0.025 0.05 0.09-0.5 0.182-0.983 0.275-1.45v0.4l-0.1 0.55v0.15c0.3 0 0.483 0.066 0.55 0.2l0.05 0.25c0 0.033-0.05 0.267-0.15 0.7zm2.8 2.25c-0.133-0.1-0.267-0.184-0.4-0.25v-0.65c-0.034-0.5-0.067-0.917-0.1-1.25-0.033-0.367 0-0.65 0.1-0.85 0.3 0.2 0.65 0.4 1.05 0.6-0.2 0.6-0.367 1.167-0.5 1.7-0.033 0.2-0.083 0.433-0.15 0.7zm1.7 0.8c-0.133-0.066-0.25-0.117-0.35-0.15 0.167-0.233 0.3-0.383 0.4-0.45 0 0.133-0.017 0.333-0.05 0.6zm32.15 0.35c0.233-0.033 0.467-0.067 0.7-0.1 0.033 0.567 0.083 1.2 0.149 1.9 0.033 0.333 0.066 0.65 0.101 0.95-0.334 0.033-0.684 0.067-1.051 0.1-0.033-0.667-0.066-1.35-0.1-2.05v-0.15l0.1-0.3 0.101-0.35zm-16.85 0.25c0.733 0.067 1.483 0.117 2.25 0.15-0.033 0.133-0.067 0.267-0.1 0.4-0.167 0.633-0.25 1.333-0.25 2.1v0.3c-0.733-0.034-1.45-0.083-2.15-0.15v-0.45c0.133-1 0.217-1.783 0.25-2.35zm-1.8-0.15c-0.066 0.367-0.1 0.75-0.1 1.15 0 0.433 0.017 0.983 0.05 1.65-0.333-0.066-0.65-0.1-0.95-0.1v-0.1c0-1.067 0.067-1.967 0.2-2.7 0.267 0.033 0.533 0.067 0.8 0.1zm-6.3-1c1.167 0.267 2.4 0.483 3.7 0.65-0.067 0.867-0.1 1.8-0.1 2.8-1.6-0.267-3.133-0.566-4.6-0.9 0.3-1.133 0.633-1.983 1-2.55zm-4.05 1.7c-0.267-0.1-0.517-0.183-0.75-0.25l0.8-1.2c0.033 0.433 0.017 0.917-0.05 1.45zm1.15 0.35c0.133-0.267 0.217-0.417 0.25-0.45 0.066 0.1 0.066 0.267 0 0.5-0.067 0-0.133-0.017-0.2-0.05h-0.05zm28.45 7.45c0.2-0.033 0.4-0.05 0.601-0.05-0.034 0.9-0.15 1.534-0.351 1.9l-0.2-1.35-0.05-0.5zm12.1 23.4c0.166 1.366 0.216 2.733 0.149 4.1-0.033 0.867-0.2 1.801-0.5 2.801l-1.2 3.5 0.65-4.601c-0.1-0.733-0.15-1.816-0.15-3.25v-5.95c-0.033-0.533-0.05-0.949-0.05-1.25 0-0.566 0.066-1 0.2-1.3 0.3 0.5 0.45 1.184 0.45 2.05 0.268 2.334 0.417 3.633 0.451 3.9zm-8.05-16.95c-0.066-0.833-0.083-1.55-0.05-2.15 0.033-1.167 0.283-1.783 0.75-1.85 0.767 0.967 1.184 2.434 1.25 4.4 0.033 1.1 0 2.667-0.1 4.7l-1.2-1c-0.366-0.333-0.583-0.983-0.65-1.95v-2.15zm-0.75 23.85l-0.25 0.9 0.051-1 0.3-1.1 0.5-1.101 0.05-0.05-0.651 2.351zm4.1-15.4c0.166 0.434 0.25 1.033 0.25 1.8 0 0.4-0.033 0.967-0.101 1.7 0 1.833-0.3 3.517-0.899 5.05-0.233 0.601-0.65 1.351-1.25 2.25-0.767 1.134-1.25 1.884-1.45 2.25l2.1-7.6c-0.133-1.434 0.2-3.4 1-5.9l0.051-0.149 0.299 0.599zm-26.7-14.6v2.15c-0.2-0.9-0.35-1.633-0.45-2.2 0.133 0 0.283 0.017 0.45 0.05zm9.7 0.4h0.5v0.3c0 0.5 0.017 1.183 0.05 2.05 0.134 1.467 0.333 3.65 0.6 6.55 0.167 2.5 0.167 4.684 0 6.55l-0.4 3.5c-0.101 0.634-0.3 1.55-0.601 2.75v1.5l-0.85-0.85c-0.134-2.267-0.184-3.95-0.15-5.051 0.034-0.933 0.184-2.316 0.45-4.149 0.233-1.867 0.367-3.267 0.4-4.2 0.033-0.6 0.05-3.3 0.05-8.1-0.032-0.3-0.049-0.583-0.049-0.85zm-21.5 18.75l0.8-2.35v9.15c0.033 0.934 0.1 2.334 0.2 4.2 0 0.667-0.017 1.033-0.05 1.101-0.3 0.466-0.617 0.05-0.95-1.25-0.1-0.534-0.15-1.2-0.15-2 0.034-0.9 0.05-1.567 0.05-2 0-3.035 0.033-5.318 0.1-6.851zm-6.7-13.35c0.033 0.167 0.067 0.35 0.1 0.55-0.067 0.3-0.15 0.667-0.25 1.1-0.033 0.267-0.067 0.517-0.1 0.75h-0.2c0.1-0.733 0.25-1.6 0.45-2.6v0.2zm2.95 12.6l-0.2 4.9c0 0.066 0.017 0.3 0.05 0.7 0 0.366-0.083 0.533-0.25 0.5 0-0.467-0.033-0.817-0.1-1.051l-0.85-3c-0.1-0.466-0.15-1.649-0.15-3.55v-0.949c-0.034-0.033-0.067-0.083-0.1-0.149-0.1-0.168-0.2-0.368-0.3-0.601-0.033-0.166-0.066-0.316-0.1-0.449-0.133-0.4-0.217-0.834-0.25-1.301-0.033-0.2-0.067-0.4-0.1-0.6-0.033-0.366-0.05-0.733-0.05-1.1-0.167 0.833-0.267 1.517-0.3 2.05l0.2 6.45c0 0.6-0.117 0.683-0.35 0.25-0.133-0.167-0.25-0.7-0.35-1.601-0.167-0.767-0.25-1.366-0.25-1.8v-1.849c-0.033-0.433-0.05-0.8-0.05-1.1 0-0.633 0.083-0.967 0.25-1l0.85-2.65c0-0.767 0.05-1.5 0.15-2.2 0.133-0.434 0.233-0.934 0.3-1.5 0-0.267 0.017-0.55 0.05-0.85l0.25-1.35-0.05 0.45c0.7-2.567 1.2-4.5 1.5-5.8 0.167-1.2 0.317-2.083 0.45-2.65l0.1-0.45c0.1 0.034 0.2 0.067 0.3 0.1-0.133 0.567-0.283 1.133-0.45 1.7-0.467 1.9-0.783 3.517-0.95 4.85-0.067 0.833-0.117 1.933-0.15 3.3-0.033 0.7-0.05 1.467-0.05 2.3l-0.4 4.4c0.2 0.733 0.383 1.283 0.55 1.649 0.233 0.534 0.5 0.95 0.8 1.25 0-0.6 0.017-1.017 0.05-1.25l0.1-0.824v0.225l-0.15 4.55zm1.75-20.5l0.35-1c0.1 0.034 0.2 0.083 0.3 0.15-0.067 0.4-0.133 0.8-0.2 1.2l-0.3 1.8v0.05c-0.033 0.233-0.067 0.467-0.1 0.7-0.133 0.933-0.267 1.867-0.4 2.8-0.167 1.033-0.3 2.083-0.4 3.15l0.15 0.55-0.2-0.1c-0.033 0.2-0.066 0.417-0.1 0.65-0.066 0.767-0.133 1.433-0.2 2l0.35-0.45c-0.034 0.267-0.15 0.6-0.35 1l-0.15 0.45c-0.133 0.4-0.217 0.884-0.25 1.45l-0.2 0.899v-10l0.55-1.6v-0.049l1.1-3.4 0.05-0.25zm3.05-0.05l-0.35 0.95c-0.6 1.767-0.917 3.367-0.95 4.8v0.85l-0.2 1.5-1.25 8.45v0.05l-0.15 0.95c-0.2 1.033-0.333 1.617-0.4 1.75-0.7-0.066-0.833-1.95-0.4-5.649v-0.101c0-0.633 0.05-1.167 0.15-1.6 0.167-1.867 0.316-3.3 0.45-4.3l0.1-2.3v-0.05c0-0.1 0.05-0.5 0.15-1.2 0-0.3 0.033-0.617 0.1-0.95v-0.25c0.033-0.3 0.067-0.566 0.1-0.8 0.2-1.7 0.333-2.65 0.4-2.85 0.433 0.133 0.883 0.283 1.35 0.45 0.3 0.1 0.6 0.2 0.9 0.3zm-0.25 6.8c0.033-0.367 0.083-0.783 0.15-1.25 0.033-0.4 0.1-0.85 0.2-1.35l0.25-1.6c0.066-0.367 0.15-0.617 0.25-0.75 0.033-0.133 0.083-0.217 0.15-0.25l0.2-1.3h0.1c-0.066 0.9-0.15 2.2-0.25 3.9-0.066 0.933-0.133 1.983-0.2 3.15 0 0.367-0.017 0.75-0.05 1.15v0.3c-0.033 1-0.133 1.95-0.3 2.85l-0.55 3.6c0.033-0.6 0.066-1.384 0.1-2.35-0.033-0.566-0.05-1.183-0.05-1.85-0.033-1.533-0.033-2.75 0-3.65v-0.6zm5.1 3.2l-0.15 0.35c-0.733-1.133-1.35-1.967-1.85-2.5l-0.4-0.4c-0.133-0.2-0.217-0.383-0.25-0.55 0.033-0.5 0.05-0.883 0.05-1.15-0.033-1.367 0.017-2.75 0.15-4.15 0.033-0.3 0.067-0.6 0.1-0.9 1.133 0.3 2.333 0.566 3.6 0.8-0.067 0.4-0.1 0.75-0.1 1.05-0.033 1.367-0.2 2.817-0.5 4.35l-0.5 2.25c-0.1 0.533-0.15 0.817-0.15 0.85zm3.25-8.2v0.85c0.031 0.246 0.089 0.604 0.175 1.075-0.058-0.271-0.117-0.479-0.175-0.625-0.167-0.5-0.317-0.95-0.45-1.35 0.133 0 0.283 0.017 0.45 0.05zm1.2 40.4h-0.15c-0.233-0.7-0.417-1.5-0.55-2.4-0.167-0.934-0.2-2-0.1-3.2l0.05-0.449c-0.233-0.4-0.417-0.817-0.55-1.25-0.1-1.467-0.233-2.233-0.4-2.301 0 0.867 0.017 1.384 0.05 1.551-0.9-3.534-1.417-6.5-1.55-8.9v-5.851l0.25-1.25c0.066-0.5 0.233-1.25 0.5-2.25 0.167-0.601 0.267-1.317 0.3-2.15-0.033-1-0.05-1.733-0.05-2.2-0.033-0.5-0.067-0.917-0.1-1.25-0.033-0.566 0-0.95 0.1-1.15l1.1-3.2 0.05 0.8c0 0.867-0.1 2.167-0.3 3.9 0.066 1.7 0.2 3.067 0.4 4.1 0.2 0.967 0.533 2.434 1 4.4 0.333 1.767 0.367 3.267 0.1 4.5-0.067 0.3-0.267 0.649-0.6 1.05-0.333 0.366-0.5 0.733-0.5 1.1 0 1.334 0.017 2.117 0.05 2.351 0.033 0.5 0.1 1.25 0.2 2.25 0.1 0.899 0.133 1.666 0.1 2.3 0 0.3 0.133 1 0.4 2.1 0.2 0.934 0.233 1.634 0.1 2.101-0.034 0-0.167-0.117-0.4-0.351l-0.05 1.2c0.067 1.1 0.167 2.2 0.3 3.3 0.067 0.432 0.15 0.815 0.25 1.149zm-18.2-26.8l0.1 0.149-0.05 0.5-0.25 1c0.033-0.633 0.067-1.217 0.1-1.75l0.1 0.101zm6.9 10.6v0.575c-5e-3 -0.265-0.055-0.557-0.15-0.875-0.133-0.5-0.217-0.8-0.25-0.9-0.367-1.233-0.583-2.166-0.65-2.8-0.133-1.1-0.117-2.283 0.05-3.55 0.133-0.767 0.217-1.384 0.25-1.851l-0.05 3.251 0.6-4.399c0-0.101 0.017-0.2 0.05-0.3l1.15-2.351c-0.3 1.033-0.517 2.3-0.65 3.8-0.067 0.867-0.133 2.167-0.2 3.9-0.1 1.8-0.15 3.634-0.15 5.5zm6.35 4.05l0.2 2.3 0.2 3.2c0.033 0.467 0.067 1.2 0.1 2.2 0.033 0.866 0.117 1.583 0.25 2.15 0.1 0.466 0.267 1.017 0.5 1.649-0.567-0.133-1.117-0.267-1.65-0.399-0.034-0.2-0.067-0.4-0.1-0.601v-0.349l-0.05-0.75c-0.3-2.967-0.483-6.334-0.55-10.101-0.233-3-0.3-5.267-0.2-6.8 0.067-0.566 0.083-1.5 0.05-2.8-0.033-1.267 0-2.217 0.1-2.85 0.1-0.867 0.316-1.65 0.65-2.351l0.05 0.65c0 0.366-0.017 0.983-0.05 1.85-0.033 0.767-0.033 1.367 0 1.8 0.167 1.534 0.283 3.801 0.35 6.801 0 0.035 0.05 1.501 0.15 4.401zm24.2-17.8c0.134 0.5 0.217 1.1 0.25 1.8 0 0.4-0.017 0.983-0.05 1.75 0.033 1.533-0.25 3.733-0.85 6.601-0.101 0.933-0.384 2.216-0.851 3.85-0.033 0.2-0.1 0.65-0.2 1.35-0.133 0.601-0.383 0.917-0.75 0.95l1.351-8.5v-11.951l1.1 4.15zm-10.8 12.25c0 0.4-0.033 0.7-0.1 0.9-0.2-0.367-0.25-1.167-0.15-2.4 0.133-1.233 0.217-1.9 0.25-2v3.5zm0-4.1l0.25 0.1c-0.1 0.1-0.183 0.267-0.25 0.5v-0.6zm-5.7-6.95c0.1-1.333 0.367-2.4 0.8-3.2l0.9-1.75-0.05 0.6 0.05 14.05c0 3.6-0.033 6.3-0.1 8.1v1c0.033 0.5-0.017 0.833-0.15 1-0.2-0.134-0.35-0.384-0.45-0.75-0.066-0.467-0.133-0.783-0.2-0.95-0.133-0.467-0.35-1.583-0.65-3.35-0.333-2.066-0.5-3.667-0.5-4.8 0.1-1.467 0.15-2.567 0.15-3.301v-3.35c0.067-1.466 0.133-2.565 0.2-3.299zm8.05 14.75c0.267 0.467 0.434 1.133 0.5 2 0.233 1.934 0.267 4.033 0.101 6.3-0.101 1.866-0.55 3.417-1.351 4.65l-0.35 0.4 0.75-3.149 0.15-7.551c0-1.466 0.067-2.35 0.2-2.65zm-1.15 13.45l0.05-0.101-0.25 1.351h-0.3c-0.246-9e-3 -0.413-0.042-0.5-0.101l1-1.149zm-4 1.1h-0.55c-0.267-0.267-0.467-0.566-0.6-0.9-0.133-0.366-0.2-0.983-0.2-1.85-0.067-1-0.1-1.783-0.1-2.35-0.033-1.034 0.1-1.801 0.4-2.301 0.633-0.166 0.95 1.483 0.95 4.95 0 1.267 0.033 2.085 0.1 2.451zm-17.7-12.8c-0.233-1.134-0.167-1.851 0.2-2.15l0.65 0.15c0.167 1.2 0.217 2.399 0.15 3.6 0.1 0.933 0.083 1.45-0.05 1.55-0.167 0.134-0.284 0.034-0.35-0.3l-0.15-1.15-0.45-1.7z" fill="#7C5C2C"/>
		<radialGradient id="f" cx="20.969" cy="-20.631" r="35.256" gradientTransform="matrix(.0177 .9998 .9998 -.0177 41.256 -.7313)" gradientUnits="userSpaceOnUse">
		<stop stop-color="#D9D9E6" offset="0"/>
		<stop stop-color="#46474D" offset=".8588"/>
		<stop stop-color="#80838C" offset="1"/>
	</radialGradient>
	<path d="m2.25 17.55c-0.133-0.2-0.267-0.383-0.4-0.55-0.067-0.133-0.133-0.267-0.2-0.4-0.267-0.567-0.4-1.133-0.4-1.7 0-0.333 0.117-0.917 0.35-1.75 0.267-0.867 0.483-1.45 0.65-1.75 0.067 0.1 0.133 0.2 0.2 0.3 1.333 2.133 4.433 3.9 9.3 5.3 5.133 1.5 11.15 2.25 18.05 2.25 6.967 0 12.983-0.667 18.05-2 5.101-1.367 8.284-3.15 9.551-5.35 0.566 1.133 0.883 2.05 0.949 2.75v0.25c0 0.5-0.1 1-0.3 1.5-0.399 0.9-1.166 1.767-2.3 2.6-1.033 0.733-2.35 1.417-3.95 2.05-0.366 0.133-0.717 0.267-1.05 0.4-0.233 0.066-0.483 0.15-0.75 0.25-0.167 0.066-0.333 0.133-0.5 0.2-0.267 0.067-0.533 0.15-0.8 0.25-0.066 0-0.134 0.017-0.2 0.05-0.134 0.033-0.25 0.066-0.35 0.1-0.5 0.133-0.983 0.267-1.45 0.4-0.667 0.167-1.334 0.316-2 0.45-0.3 0.067-0.584 0.133-0.851 0.2-0.866 0.133-1.767 0.283-2.699 0.45-0.2 0-0.4 0.017-0.601 0.05s-0.383 0.066-0.55 0.1c-1.434 0.167-2.917 0.3-4.45 0.4-0.2 0-0.399 0.017-0.6 0.05h-0.15c-0.3 0.033-0.6 0.05-0.899 0.05-0.167 0-0.317 0.017-0.45 0.05-0.667 0-1.334 0.017-2 0.05h-2.45c-1.033 0-2.033-0.017-3-0.05-1.633-0.1-3.217-0.217-4.75-0.35-0.167-0.033-0.317-0.05-0.45-0.05-0.466-0.067-0.9-0.117-1.3-0.15-0.2-0.034-0.4-0.067-0.6-0.1-0.1-0.033-0.2-0.05-0.3-0.05-0.167-0.033-0.317-0.05-0.45-0.05-0.533-0.1-1.05-0.183-1.55-0.25-1.267-0.233-2.467-0.5-3.6-0.8-0.367-0.1-0.733-0.2-1.1-0.3-0.1-0.033-0.167-0.05-0.2-0.05-0.067-0.033-0.117-0.05-0.15-0.05h-0.1c-0.067-0.033-0.133-0.05-0.2-0.05-0.267-0.1-0.517-0.183-0.75-0.25-0.3-0.1-0.6-0.2-0.9-0.3-0.467-0.167-0.917-0.317-1.35-0.45-0.033-0.033-0.083-0.05-0.15-0.05-0.1-0.067-0.2-0.117-0.3-0.15s-0.2-0.066-0.3-0.1c-0.067-0.034-0.133-0.067-0.2-0.1-0.367-0.133-0.683-0.283-0.95-0.45-0.1-0.033-0.2-0.066-0.3-0.1-0.1-0.066-0.183-0.117-0.25-0.15-0.333-0.167-0.633-0.316-0.9-0.45-0.2-0.133-0.4-0.267-0.6-0.4-0.066-0.033-0.133-0.066-0.2-0.1-0.434-0.3-0.8-0.6-1.1-0.9-0.3-0.267-0.55-0.517-0.75-0.75z" fill="url(#f)"/>
	<path d="m27 4.8l1.2-0.7-1.6 0.8-0.75 0.05h-0.1l1.65-0.9 1.95-0.05-0.9 0.55-0.65 0.1c-0.233 0.1-0.5 0.15-0.8 0.15zm-4-0.25h0.7l3.3-0.45-1.4 0.9-3.9 0.15 1.3-0.6zm-5.7 1.3l2.95-1.25h1.45l-7 2.8 3.85-1.75-1.25 0.2zm2.5-1.25l-3.4 1.4-0.9 0.25-0.35 0.15 0.2-0.05c-0.267 0.133-0.617 0.316-1.05 0.55-0.267 0.1-0.55 0.217-0.85 0.35l-0.1 0.1c-0.233 0.133-0.833 0.533-1.8 1.2l-1.05 0.4 1-0.35c-0.533 0.367-1.017 0.633-1.45 0.8l0.45-0.45-0.75 0.25c0.1-0.167 0.267-0.35 0.5-0.55 0.467-0.4 1.117-0.833 1.95-1.3l0.1-0.1c0.267-0.133 0.667-0.4 1.2-0.8l0.95-0.25 0.35-0.15h0.25c0.9-0.133 1.583-0.3 2.05-0.5h0.05c0.067-0.033 0.15-0.066 0.25-0.1l1.8-0.75c0.133-0.034 0.25-0.067 0.35-0.1h0.25zm0.05 8.2l-1.2-0.15 0.6-0.25 0.75 0.3c0-0.233 0.033-0.4 0.1-0.5l3.45-1.3 0.9-0.5c-1.2 0.7-2.25 1.283-3.15 1.75-0.533 0.267-1.017 0.483-1.45 0.65z" fill="#60471F"/>
	<linearGradient id="g" x1="3.4502" x2="56.05" y1="61.5" y2="61.5" gradientUnits="userSpaceOnUse">
		<stop stop-color="#D9D9E6" offset="0"/>
		<stop stop-color="#797B85" offset="1"/>
	</linearGradient>
	<path d="m11.7 62.35c0.1 0.034 0.2 0.067 0.3 0.101 0.5 0.133 1.017 0.283 1.55 0.45 0.267 0.1 0.567 0.183 0.9 0.25 0.533 0.133 1.083 0.267 1.65 0.399 0.6 0.134 1.2 0.25 1.8 0.351 0.2 0.033 0.4 0.066 0.6 0.1 0.367 0.066 0.75 0.134 1.15 0.2h0.15c0.434 0.066 0.883 0.133 1.35 0.2 0.667 0.066 1.35 0.133 2.05 0.199 0.566 0.067 1.133 0.117 1.7 0.15h0.55c0.633 0.033 1.267 0.066 1.9 0.1 0.531 0.031 1.064 0.048 1.6 0.051h2.3c0.467-0.034 0.934-0.051 1.4-0.051 0.033-0.033 0.083-0.033 0.149 0 0.667-0.033 1.316-0.066 1.95-0.1 0.434-0.033 0.866-0.066 1.3-0.1 1.334-0.134 2.634-0.284 3.9-0.45 0.133-0.033 0.267-0.066 0.399-0.101 0.167-0.033 0.351-0.05 0.551-0.05 1.5-0.267 2.933-0.583 4.3-0.95 0.833-0.233 1.649-0.466 2.45-0.699 0.733-0.267 1.466-0.551 2.199-0.851 0.101-0.033 0.2-0.066 0.301-0.1 0.166-0.101 0.333-0.184 0.5-0.25 0.966-0.434 1.816-0.851 2.55-1.25 0.967-0.601 1.733-1.184 2.3-1.75 0.2-0.2 0.384-0.4 0.55-0.601l-0.8 1.4c-0.134 0.1-0.25 0.2-0.35 0.3-0.601 0.467-1.334 0.934-2.2 1.4-0.601 0.333-1.283 0.666-2.05 1-0.233 0.1-0.483 0.217-0.75 0.35-0.034 0-0.084 0.017-0.15 0.05-0.766 0.302-1.549 0.602-2.349 0.902-0.801 0.233-1.617 0.467-2.45 0.7-1.367 0.333-2.816 0.633-4.351 0.899-0.133 0-0.283 0.017-0.449 0.051-0.167 0.033-0.351 0.066-0.551 0.1-1.233 0.167-2.517 0.3-3.85 0.4-0.333 0.033-0.667 0.066-1 0.1-0.667 0.033-1.35 0.066-2.05 0.1h-0.101c-0.466 0-0.949 0.017-1.449 0.051h-2.05c-0.633 0-1.25-0.017-1.85-0.051-1.367-0.066-2.667-0.149-3.9-0.25-0.767-0.066-1.483-0.133-2.15-0.199-0.434-0.067-0.867-0.134-1.3-0.2h-0.1c-0.433-0.066-0.833-0.134-1.2-0.2-0.2-0.033-0.4-0.066-0.6-0.1-0.567-0.101-1.133-0.2-1.7-0.301-0.6-0.133-1.2-0.283-1.8-0.449-0.3-0.067-0.583-0.134-0.85-0.2-0.533-0.167-1.05-0.334-1.55-0.5-0.1-0.033-0.2-0.066-0.3-0.101-0.767-0.233-1.483-0.5-2.15-0.8-0.233-0.066-0.433-0.149-0.6-0.25-0.1-0.033-0.183-0.066-0.25-0.1-0.267-0.134-0.533-0.267-0.8-0.4-0.433-0.2-0.833-0.416-1.2-0.649-0.133-0.101-0.267-0.184-0.4-0.25-0.3-0.2-0.583-0.384-0.85-0.551-0.066-0.033-0.117-0.066-0.15-0.1-0.167-0.1-0.316-0.2-0.45-0.3-0.1-0.101-0.2-0.184-0.3-0.25l-0.549-0.5-0.65-1.1 0.9 0.801 0.3 0.3c0.2 0.133 0.4 0.283 0.6 0.45 0.067 0.033 0.133 0.083 0.2 0.149 0.2 0.134 0.4 0.267 0.6 0.4 0.133 0.066 0.267 0.149 0.4 0.25 0.433 0.267 0.883 0.517 1.35 0.75 0.333 0.166 0.667 0.333 1 0.5 0.067 0.033 0.117 0.066 0.15 0.1 0.167 0.066 0.35 0.134 0.55 0.2 0.7 0.3 1.433 0.583 2.2 0.85z" fill="url(#g)"/>
		<radialGradient id="h" cx="21.1" cy="64.9" r="34.138" gradientTransform="matrix(1 0 0 -1 0 129.8)" gradientUnits="userSpaceOnUse">
		<stop stop-color="#D9D9E6" offset="0"/>
		<stop stop-color="#46474D" offset=".8588"/>
		<stop stop-color="#80838C" offset="1"/>
	</radialGradient>
	<path d="m4.1 58.7l0.55 0.5c0.1 0.066 0.2 0.149 0.3 0.25 0.133 0.1 0.283 0.2 0.45 0.3 0.033 0.033 0.083 0.066 0.15 0.1 0.267 0.167 0.55 0.35 0.85 0.55 0.133 0.066 0.267 0.149 0.4 0.25 0.367 0.234 0.767 0.45 1.2 0.65 0.267 0.134 0.533 0.267 0.8 0.4 0.067 0.033 0.15 0.066 0.25 0.1 0.167 0.101 0.367 0.184 0.6 0.25 0.667 0.3 1.383 0.566 2.15 0.8 0.1 0.034 0.2 0.067 0.3 0.101 0.5 0.166 1.017 0.333 1.55 0.5 0.267 0.066 0.55 0.133 0.85 0.2 0.6 0.166 1.2 0.316 1.8 0.449 0.567 0.101 1.133 0.2 1.7 0.301 0.2 0.033 0.4 0.066 0.6 0.1 0.367 0.066 0.767 0.134 1.2 0.2h0.1c0.434 0.066 0.867 0.133 1.3 0.2 0.667 0.066 1.383 0.133 2.15 0.199 1.233 0.101 2.533 0.184 3.9 0.25 0.6 0.034 1.217 0.051 1.85 0.051h2.05c0.5-0.034 0.983-0.051 1.449-0.051h0.101c0.7-0.033 1.383-0.066 2.05-0.1 0.333-0.033 0.667-0.066 1-0.1 1.333-0.101 2.616-0.233 3.85-0.4 0.2-0.033 0.384-0.066 0.551-0.1 0.166-0.034 0.316-0.051 0.449-0.051 1.534-0.267 2.983-0.566 4.351-0.899 0.833-0.233 1.649-0.467 2.45-0.7 0.8-0.3 1.583-0.6 2.35-0.9 0.066-0.033 0.116-0.05 0.15-0.05 0.267-0.133 0.517-0.25 0.75-0.35 0.767-0.334 1.449-0.667 2.05-1 0.866-0.467 1.6-0.934 2.2-1.4 0.1-0.1 0.216-0.2 0.35-0.3 0.3-0.3 0.566-0.6 0.8-0.9l-2.6 4.301c-0.934 1.1-2.617 2.199-5.05 3.3-4.834 2.2-10.934 3.35-18.301 3.45h-0.75c-7.366-0.101-13.466-1.25-18.3-3.45-1.5-0.7-2.8-1.467-3.9-2.3l-1.15-1.001-2.55-4.3 0.65 0.6z" fill="url(#h)"/>
</g>
</svg>