<?xml version='1.0' encoding='utf-8'?>
<svg xmlns="http://www.w3.org/2000/svg" xmlns:xlink="http://www.w3.org/1999/xlink" enable-background="new 0 0 68.15 45.75" version="1.1" viewBox="0 0 68.15 45.75">
<symbol id="c" viewBox="0 -432.375 519.925 432.375">
	<g clip-rule="evenodd" fill-rule="evenodd">
		<path d="m318.3-404.55c-7.643 0.4-27.293 13.434-58.95 39.1-40.704 32.995-89.037 74.495-145 124.5-51.077 45.646-78.944 74.047-83.6 85.2-0.445 1.066-0.679 1.974-0.7 2.725-0.249 8.604 10.667 21.638 32.75 39.1 22.088 17.458 37.697 30.575 46.825 39.35 9.123 8.781 16.515 15.015 22.175 18.7 5.668 3.679 20.118 11.729 43.35 24.15 23.23 12.414 41.31 20.923 54.25 25.52 11.7 4.134 17.9 6.2 18.6 6.2 30.8 0 83.2-39.167 157.2-117.5 18.433-19.5 43.433-47.267 75-83.3 20.135-22.999 32.826-36.866 38.075-41.6 0.618-1.344 1.168-2.569 1.65-3.675-0.104-1-0.229-2.034-0.375-3.1-1.02-0.55-2.12-0.825-3.3-0.825-0.765 0-1.474 0.05-2.125 0.15-0.562 0.735-1.128 1.469-1.7 2.2-16.926 21.511-33.668 41.911-50.225 61.2-24.8 28.9-48.567 54.95-71.3 78.15-61.55 62.867-104.85 94.3-129.92 94.3-13.2 0-32.167-5.283-56.9-15.85-23.367-9.967-47.383-22.65-72.05-38.05-25.4-15.867-46-31.233-61.8-46.1-17.501-16.47-26.268-28.262-26.3-35.375-0.031-7.106 11.636-23.806 35-50.1 23.362-26.294 52.712-51.703 88.05-76.225 35.337-24.527 65.729-49.344 91.175-74.45 23.76-23.44 43.852-40.006 60.275-49.7-0.04-1.49-0.09-3.05-0.16-4.7z" fill="#DDBF79"/>
		<path d="m321.9-401.8c-1.129 0.618-2.279 1.268-3.45 1.95-16.424 9.694-36.516 26.26-60.275 49.7-25.446 25.105-55.838 49.922-91.175 74.45-35.337 24.522-64.688 49.931-88.05 76.225-23.364 26.294-35.031 42.994-35 50.1 0.032 7.113 8.799 18.905 26.3 35.375 15.8 14.867 36.4 30.233 61.8 46.1 24.667 15.4 48.684 28.083 72.05 38.05 24.73 10.567 43.7 15.85 56.9 15.85 25.066 0 68.367-31.433 129.9-94.3 22.733-23.2 46.5-49.25 71.3-78.15 16.557-19.289 33.298-39.688 50.225-61.2 0.572-0.731 1.139-1.465 1.7-2.2 0.043-0.048 0.085-0.098 0.125-0.15-0.833-0.833-2.417-1.417-4.75-1.75l-2.175-0.1c-5.009-4.251-10.934-9.618-17.775-16.1-15-14.233-27.433-26.917-37.3-38.05-2.667-3.067-9.434-8.25-20.3-15.55-14.534-9.5-25.917-16.967-34.15-22.4-24.453-16.07-49.053-34.753-73.8-56.05-0.69-0.6-1.39-1.2-2.09-1.8zm-113.82 278.05c3.33-8.813 10.655-16.196 21.975-22.15 6.267-3.3 13.267-5.867 21-7.7 6.833-1.6 13.15-2.4 18.95-2.4 15.6 0 26.917 2.65 33.95 7.95 2.192 1.655 4.083 3.63 5.675 5.925 4.24 6.1 6.36 14.48 6.36 25.12 0 15.733-5.95 28.167-17.85 37.3-3.801 2.929-8.051 5.388-12.75 7.375-3.31 0.217-8.78 0.325-16.4 0.325-5.333 0-11.434-0.833-18.3-2.5-7.5-1.8-14.4-4.283-20.7-7.45-16-8.066-24-18.083-24-30.05 0-4.16 0.69-8.08 2.08-11.75zm147.07-47.17c-0.77-3.11-1.15-6.47-1.15-10.08 0-7.2 3.35-13.517 10.05-18.95 5.86-4.741 12.51-7.382 19.95-7.925 0.623-0.05 1.248-0.083 1.875-0.1 0.373-0.017 0.748-0.025 1.125-0.025 3.467 0 7.15 2 11.05 6 3.967 4.1 5.95 8.1 5.95 12 0 10.8-2.633 20.167-7.9 28.1-0.893 1.339-1.843 2.597-2.85 3.775-4.58 1.41-9.33 2.12-14.25 2.12-1.566 0-6.6-1.6-15.1-4.8-2.1-0.782-4-1.515-5.7-2.2-1.34-2.43-2.36-5.07-3.05-7.92zm-32.5-61.68c3.154-1.525 5.621-2.475 7.4-2.85 1.634-0.367 6.617-0.55 14.95-0.55 3.5 0 6.133 0.083 7.9 0.25 2.967 0.267 5.333 0.85 7.1 1.75 0 1-0.083 1.966-0.25 2.9-1.026 5.469-5.06 9.686-12.1 12.65-5.901 2.426-13.626 3.901-23.175 4.425-5.815-3-9.307-7.658-10.475-13.975 3.3-1.88 6.18-3.42 8.65-4.6zm-90.57-12.95c1.188-0.89 2.513-1.69 3.975-2.4 5.5-2.7 12.817-4.05 21.95-4.05 11.633 0 21.667 3.35 30.1 10.05 7.933 6.333 11.9 13.317 11.9 20.95 0 2.767-0.316 5.316-0.95 7.65-1.621 5.865-5.271 10.349-10.95 13.45-6.422 3.508-15.897 5.45-28.425 5.825-13.087-2.88-21.979-6.239-26.675-10.075-6-4.9-9-12.85-9-23.85 0-7.68 2.69-13.53 8.08-17.54zm50.52-93c2.714-1.925 5.865-3.726 9.45-5.4 5.534-2.6 11.617-4.65 18.25-6.15 5.7-1.267 10.6-1.9 14.7-1.9 5.277 0 10.152 0.467 14.625 1.4 1.763 0.369 3.463 0.811 5.1 1.325 4.177 1.306 7.952 3.081 11.325 5.325 9.31 6.18 13.96 15.16 13.96 26.96 0 3.667-1.283 7.767-3.85 12.3-2.5 4.5-5.867 8.75-10.1 12.75-6.151 5.779-12.477 9.762-18.975 11.95h-28.43c-0.289-0.037-0.581-0.071-0.875-0.1-17.831-9.247-28.489-15.53-31.975-18.85-2.4-2.3-4-4.85-4.8-7.65-0.667-2.3-1-5.767-1-10.4 0-7.551 3.4-14.126 10.2-19.725 0.76-0.62 1.56-1.23 2.4-1.83zm-100.95 183.6c-1.107 4.913-4.974 9.213-11.6 12.9-7.233 4.033-14.917 6.05-23.05 6.05-1.566 0.133-3.083 0.183-4.55 0.15-1.353-0.031-2.669-0.156-3.95-0.375-1.942-1.679-3.742-3.471-5.4-5.375-3.4-3.867-5.1-7-5.1-9.4 0-6.331 1.333-11.447 4-15.35 1.561-2.282 3.578-4.148 6.05-5.6 4.6-2.7 11.25-4.05 19.95-4.05 6.3 0 11.65 1.35 16.05 4.05 5.3 3.233 7.95 7.883 7.95 13.95 0 1.04-0.12 2.06-0.35 3.05zm13.87-47.03c-0.593 2.347-1.751 4.339-3.475 5.975-2.077 1.956-4.794 3.197-8.15 3.725-3.735-0.639-7.885-1.981-12.45-4.025-6.534-3.3-11.684-5.867-15.45-7.7 3.621-3.621 8.313-7.129 14.075-10.525 0.076-0.04 0.151-0.082 0.225-0.125 6.1-3.567 10.667-5.35 13.7-5.35 2.9 0 5.583 1.333 8.05 4 2.634 2.833 3.95 6.167 3.95 10 0.02 1.43-0.14 2.77-0.46 4.01zm245-28.82c0.691-2.25 2.649-4.633 5.875-7.15 3.467-2.7 5.75-4.05 6.85-4.05 2 0 4.066 2.5 6.2 7.5 0.402 0.956 0.761 1.864 1.075 2.725 1.15 3.17 1.725 5.761 1.725 7.775-0.4 0-1.684 0.333-3.85 1s-4.216 1-6.15 1c-1.63 0-3.055-0.025-4.275-0.075-3.967-1.002-6.325-1.927-7.075-2.775-0.433-0.467-0.65-1.85-0.65-4.15 0.02-0.58 0.11-1.18 0.29-1.79z" fill="#F5E1A3"/>
		<path d="m309.62-142.12c0.25 1.07 0.375 2.112 0.375 3.125 0 9.967-4.65 18.967-13.95 27-9.3 8-19.65 12-31.05 12-14.566 0-26.867-2.017-36.9-6.05-10.215-4.114-16.89-10.014-20.025-17.7-1.39 3.67-2.08 7.59-2.08 11.75 0 11.967 8 21.983 24 30.05 6.3 3.167 13.2 5.65 20.7 7.45 6.866 1.667 12.966 2.5 18.3 2.5 7.62 0 13.086-0.108 16.4-0.325 4.699-1.987 8.949-4.446 12.75-7.375 11.9-9.133 17.85-21.57 17.85-37.3 0-10.64-2.12-19.02-6.38-25.12zm45.53-28.8c0.692 2.854 1.709 5.497 3.05 7.925 1.7 0.685 3.6 1.418 5.7 2.2 8.5 3.2 13.534 4.8 15.1 4.8 4.916 0 9.666-0.708 14.25-2.125 1.007-1.178 1.958-2.436 2.85-3.775 5.267-7.934 7.9-17.3 7.9-28.1 0-3.9-1.983-7.9-5.95-12-3.9-4-7.583-6-11.05-6-0.377 0-0.752 8e-3 -1.125 0.025 4.239 0.27 7.714 2.211 10.425 5.825 2.467 3.267 3.7 6.65 3.7 10.15 0 5.8-2.684 11.15-8.05 16.05-5.8 5.3-12.784 7.95-20.95 7.95-3.066 0.133-5.35 0.183-6.85 0.15-2.533-0.066-4.65-0.5-6.35-1.3-0.94-0.42-1.82-1.02-2.65-1.76zm4.6-60.18c-8.051 4.733-13.968 7.1-17.75 7.1-9.551-3.107-16-5.974-19.35-8.6-2.466 1.183-5.35 2.716-8.65 4.6 1.168 6.317 4.66 10.976 10.475 13.975 9.548-0.524 17.273-1.999 23.175-4.425 7.03-2.97 11.06-7.19 12.09-12.66zm-60.7 17.75c-0.439 0.265-0.889 0.532-1.35 0.8-5.2 3.033-9.434 4.55-12.7 4.55-2.9 0-7.35-1.383-13.35-4.15-5.6-2.6-11.483-5.9-17.65-9.9-14.667-9.467-22-16.45-22-20.95 0-1.065 0.025-1.915 0.075-2.55-5.39 4.01-8.08 9.86-8.08 17.55 0 11 3 18.95 9 23.85 4.696 3.836 13.587 7.194 26.675 10.075 12.528-0.375 22.003-2.316 28.425-5.825 5.68-3.1 9.33-7.58 10.95-13.45zm40.57-137.25c3.223 1.834 5.798 3.951 7.725 6.35 0.015 0.019 0.031 0.035 0.05 0.05 1.733 3.937 2.6 7.67 2.6 11.2 0 5.233-5.983 10.9-17.95 17-4.366 2.233-8.866 4.167-13.5 5.8-4.2 1.467-7.05 2.2-8.55 2.2-6.833 0-13.483-3.3-19.95-9.9-4.851-4.947-7.942-10.172-9.275-15.675 0.424-1.491 1.032-3.149 1.825-4.975-0.843 0.599-1.643 1.208-2.4 1.825-6.78 5.61-10.18 12.19-10.18 19.74 0 4.633 0.333 8.1 1 10.4 0.8 2.8 2.4 5.35 4.8 7.65 3.486 3.32 14.145 9.604 31.975 18.85 0.294 0.029 0.586 0.063 0.875 0.1h28.425c6.498-2.188 12.823-6.171 18.975-11.95 4.233-4 7.6-8.25 10.1-12.75 2.567-4.533 3.85-8.633 3.85-12.3 0-11.8-4.65-20.783-13.95-26.95-3.373-2.244-7.147-4.019-11.325-5.325-1.65-0.51-3.35-0.95-5.12-1.32zm-207.62 184.25c-2.667 3.903-4 9.02-4 15.35 0 2.4 1.7 5.533 5.1 9.4 1.658 1.904 3.458 3.696 5.4 5.375 1.281 0.219 2.598 0.344 3.95 0.375 1.466 0.033 2.983-0.017 4.55-0.15 8.133 0 15.816-2.017 23.05-6.05 6.626-3.688 10.493-7.987 11.6-12.9-0.013 0.019-0.029 0.036-0.05 0.05-4.5 3.267-11.034 4.9-19.6 4.9-5.434 0-11.4-1.317-17.9-3.95-8.067-3.3-12.1-7.316-12.1-12.05v-0.36zm38.08-48.17c-5.763 3.396-10.455 6.904-14.075 10.525 3.767 1.833 8.917 4.4 15.45 7.7 4.564 2.044 8.714 3.386 12.45 4.025 3.356-0.528 6.073-1.77 8.15-3.725 1.724-1.636 2.882-3.628 3.475-5.975-2.24 1.32-4.75 1.98-7.52 1.98-6.6 0-11.25-1.3-13.95-3.9-2.32-2.21-3.65-5.75-3.97-10.62zm290.44-17.26c-0.589 0.956-1.331 1.581-2.225 1.875-1 0.367-2.566 0.467-4.7 0.3-3.434-0.267-5.55-0.4-6.35-0.4-2.661 0-4.902-0.267-6.725-0.8-0.183 0.61-0.275 1.209-0.275 1.8 0 2.3 0.217 3.683 0.65 4.15 0.75 0.848 3.108 1.773 7.075 2.775 1.22 0.05 2.645 0.075 4.275 0.075 1.934 0 3.983-0.333 6.15-1s3.45-1 3.85-1c0.01-2.01-0.56-4.6-1.72-7.78z" fill="#DDAF64"/>
		<path d="m208.08-123.75c3.135 7.687 9.81 13.586 20.025 17.7 10.033 4.033 22.333 6.05 36.9 6.05 11.4 0 21.75-4 31.05-12 9.3-8.033 13.95-17.033 13.95-27 0-1.013-0.125-2.055-0.375-3.125-1.591-2.294-3.483-4.27-5.675-5.925-7.034-5.3-18.35-7.95-33.95-7.95-5.8 0-12.117 0.8-18.95 2.4-7.733 1.833-14.733 4.4-21 7.7-11.31 5.94-18.64 13.33-21.96 22.14zm177.8-84.23c-0.627 0.017-1.252 0.05-1.875 0.1-7.44 0.542-14.09 3.184-19.95 7.925-6.7 5.44-10.05 11.76-10.05 18.96 0 3.61 0.383 6.969 1.15 10.075 0.827 0.748 1.71 1.34 2.65 1.775 1.7 0.8 3.817 1.233 6.35 1.3 1.5 0.033 3.784-0.017 6.85-0.15 8.167 0 15.15-2.65 20.95-7.95 5.366-4.9 8.05-10.25 8.05-16.05 0-3.5-1.233-6.883-3.7-10.15-2.71-3.62-6.19-5.57-10.42-5.84zm-63.23-24.62c3.35 2.626 9.799 5.493 19.35 8.6 3.782 0 9.699-2.367 17.75-7.1 0.167-0.934 0.25-1.9 0.25-2.9-1.767-0.9-4.133-1.483-7.1-1.75-1.767-0.167-4.4-0.25-7.9-0.25-8.333 0-13.316 0.183-14.95 0.55-1.78 0.37-4.25 1.33-7.4 2.85zm-90.57-12.95c-0.05 0.635-0.075 1.485-0.075 2.55 0 4.5 7.333 11.483 22 20.95 6.167 4 12.05 7.3 17.65 9.9 6 2.767 10.45 4.15 13.35 4.15 3.267 0 7.5-1.517 12.7-4.55 0.46-0.269 0.911-0.535 1.35-0.8 0.634-2.333 0.95-4.883 0.95-7.65 0-7.633-3.967-14.617-11.9-20.95-8.434-6.7-18.467-10.05-30.1-10.05-9.133 0-16.45 1.35-21.95 4.05-1.46 0.71-2.79 1.51-3.97 2.4zm50.52-93c-0.793 1.825-1.401 3.484-1.825 4.975 1.333 5.503 4.424 10.728 9.275 15.675 6.467 6.6 13.117 9.9 19.95 9.9 1.5 0 4.35-0.733 8.55-2.2 4.634-1.633 9.134-3.566 13.5-5.8 11.967-6.1 17.95-11.767 17.95-17 0-3.53-0.867-7.264-2.6-11.2-0.019-0.015-0.035-0.031-0.05-0.05-1.927-2.399-4.502-4.516-7.725-6.35-4.473-0.933-9.348-1.4-14.625-1.4-4.1 0-9 0.633-14.7 1.9-6.633 1.5-12.716 3.55-18.25 6.15-3.61 1.67-6.76 3.47-9.47 5.4zm-150.6 172.2v0.35c0 4.733 4.033 8.75 12.1 12.05 6.5 2.633 12.466 3.95 17.9 3.95 8.566 0 15.1-1.633 19.6-4.9 0.021-0.015 0.037-0.031 0.05-0.05 0.233-0.99 0.35-2.006 0.35-3.05 0-6.067-2.65-10.717-7.95-13.95-4.4-2.7-9.75-4.05-16.05-4.05-8.7 0-15.35 1.35-19.95 4.05-2.47 1.45-4.49 3.32-6.05 5.6zm38.08-48.17c0.327 4.875 1.652 8.417 3.975 10.625 2.7 2.6 7.35 3.9 13.95 3.9 2.769 0 5.277-0.658 7.525-1.975 0.3-1.24 0.46-2.58 0.46-4.02 0-3.833-1.316-7.167-3.95-10-2.466-2.667-5.15-4-8.05-4-3.033 0-7.6 1.783-13.7 5.35-0.07 0.04-0.15 0.09-0.22 0.13zm270.44-16.28c1.823 0.533 4.064 0.8 6.725 0.8 0.8 0 2.917 0.133 6.35 0.4 2.133 0.167 3.7 0.067 4.7-0.3 0.895-0.294 1.636-0.919 2.225-1.875-0.314-0.861-0.672-1.77-1.075-2.725-2.134-5-4.2-7.5-6.2-7.5-1.1 0-3.383 1.35-6.85 4.05-3.22 2.52-5.17 4.9-5.87 7.15z" fill="#BD8437"/>
		<path d="m30.75-155.75c4.656-11.153 32.523-39.554 83.6-85.2 55.963-50.005 104.3-91.505 145-124.5 31.657-25.666 51.307-38.699 58.95-39.1-0.081-1.732-0.181-3.548-0.3-5.45-0.525-8.41-0.634-15.16-0.325-20.25-1.433-0.729-2.858-1.438-4.275-2.125-54.43 19.267-107.05 39.858-157.85 61.775-91.65 39.506-142.8 69.248-153.45 89.225-1.4 2.63-2.1 5.09-2.1 7.38 0 4.702 0.7 11.118 2.1 19.25 0.694 4.026 1.561 8.476 2.6 13.35 2.933 13.767 6.667 28.25 11.2 43.45 4.6 15.534 9 28.333 13.2 38.4 0.565 1.34 1.115 2.61 1.65 3.8z" fill="#EDB348"/>
		<path d="m519.55-249.18c-0.507-3.607-1.274-7.615-2.3-12.025-0.988-3.804-1.729-6.771-2.225-8.9-10.723-9.188-24.164-21.338-40.325-36.45-25.9-24.267-42.833-39.95-50.8-47.05-39.256-35.066-74.665-60.616-106.22-76.65-0.309 5.09-0.2 11.84 0.325 20.25 0.119 1.902 0.219 3.718 0.3 5.45 2.178-0.114 3.378 0.803 3.6 2.75 0.698 0.604 1.398 1.204 2.1 1.8 24.747 21.296 49.347 39.98 73.8 56.05 8.233 5.434 19.617 12.9 34.15 22.4 10.866 7.3 17.633 12.483 20.3 15.55 9.867 11.133 22.3 23.817 37.3 38.05 6.841 6.482 12.767 11.849 17.775 16.1l2.175 0.1c2.333 0.333 3.917 0.917 4.75 1.75-0.04 0.052-0.082 0.102-0.125 0.15 0.651-0.1 1.36-0.15 2.125-0.15 1.19 0 2.29 0.28 3.31 0.82z" fill="#F1E3BE"/>
	</g>
</symbol>
<symbol id="d" viewBox="0 -34.274 41.214 34.274">
			<use transform="scale(.0793)" y="-432.375" width="519.925" height="432.375" xlink:href="#c"/>
</symbol>
<use transform="scale(1.0922 -1.0933)" y="-34.274" width="41.214" height="34.274" xlink:href="#d"/>
</svg>